<?xml version="1.0" encoding="UTF-8" standalone="no"?>
<!DOCTYPE svg PUBLIC "-//W3C//DTD SVG 1.1//EN"
 "http://www.w3.org/Graphics/SVG/1.1/DTD/svg11.dtd">
<!-- Generated by graphviz version 12.2.1 (0)
 -->
<!-- Title: JavaArtifactLongestPaths Pages: 1 -->
<svg width="904pt" height="755pt"
 viewBox="0.00 0.00 904.30 754.65" xmlns="http://www.w3.org/2000/svg" xmlns:xlink="http://www.w3.org/1999/xlink">
<g id="graph0" class="graph" transform="scale(1 1) rotate(0) translate(4 750.65)">
<title>JavaArtifactLongestPaths</title>
<polygon fill="white" stroke="none" points="-4,4 -4,-750.65 900.3,-750.65 900.3,4 -4,4"/>
<!-- axon&#45;eventsourcing&#45;4.10.3\n(level 4/6) -->
<g id="node1" class="node">
<title>axon&#45;eventsourcing&#45;4.10.3\n(level 4/6)</title>
<ellipse fill="#98dafe" stroke="#1178b2" cx="509" cy="-243.08" rx="117.43" ry="29.42"/>
<text text-anchor="middle" x="509" y="-247.28" font-family="Helvetica,Arial,sans-serif" font-size="14.00">axon&#45;eventsourcing&#45;4.10.3</text>
<text text-anchor="middle" x="509" y="-230.48" font-family="Helvetica,Arial,sans-serif" font-size="14.00">(level 4/6)</text>
</g>
<!-- axon&#45;messaging&#45;4.10.3\n(level 6/6) -->
<g id="node2" class="node">
<title>axon&#45;messaging&#45;4.10.3\n(level 6/6)</title>
<ellipse fill="#98dafe" stroke="#1178b2" cx="198" cy="-29.42" rx="103.69" ry="29.42"/>
<text text-anchor="middle" x="198" y="-33.62" font-family="Helvetica,Arial,sans-serif" font-size="14.00">axon&#45;messaging&#45;4.10.3</text>
<text text-anchor="middle" x="198" y="-16.82" font-family="Helvetica,Arial,sans-serif" font-size="14.00">(level 6/6)</text>
</g>
<!-- axon&#45;eventsourcing&#45;4.10.3\n(level 4/6)&#45;&gt;axon&#45;messaging&#45;4.10.3\n(level 6/6) -->
<g id="edge1" class="edge">
<title>axon&#45;eventsourcing&#45;4.10.3\n(level 4/6)&#45;&gt;axon&#45;messaging&#45;4.10.3\n(level 6/6)</title>
<path fill="none" stroke="#1178b2" stroke-width="5.3" d="M500.86,-213.34C490.74,-182.72 470.59,-134.87 437,-106.83 400.13,-76.06 350.7,-57.62 306.36,-46.6"/>
<polygon fill="#1178b2" stroke="#1178b2" stroke-width="5.3" points="307.53,-42.11 296.74,-44.36 305.43,-51.14 307.53,-42.11"/>
<text text-anchor="middle" x="488.49" y="-133.25" font-family="Helvetica,Arial,sans-serif" font-size="10.00">650</text>
</g>
<!-- axon&#45;modelling&#45;4.10.3\n(level 5/6) -->
<g id="node3" class="node">
<title>axon&#45;modelling&#45;4.10.3\n(level 5/6)</title>
<ellipse fill="#98dafe" stroke="#1178b2" cx="326" cy="-136.25" rx="102.04" ry="29.42"/>
<text text-anchor="middle" x="326" y="-140.45" font-family="Helvetica,Arial,sans-serif" font-size="14.00">axon&#45;modelling&#45;4.10.3</text>
<text text-anchor="middle" x="326" y="-123.65" font-family="Helvetica,Arial,sans-serif" font-size="14.00">(level 5/6)</text>
</g>
<!-- axon&#45;eventsourcing&#45;4.10.3\n(level 4/6)&#45;&gt;axon&#45;modelling&#45;4.10.3\n(level 5/6) -->
<g id="edge2" class="edge">
<title>axon&#45;eventsourcing&#45;4.10.3\n(level 4/6)&#45;&gt;axon&#45;modelling&#45;4.10.3\n(level 5/6)</title>
<path fill="none" stroke="red" stroke-width="1.52" d="M462.82,-215.62C438.07,-201.44 407.39,-183.87 381.36,-168.96"/>
<polygon fill="red" stroke="red" stroke-width="1.52" points="383.31,-166.04 372.89,-164.11 379.83,-172.12 383.31,-166.04"/>
<text text-anchor="middle" x="427.99" y="-186.66" font-family="Helvetica,Arial,sans-serif" font-size="10.00">80</text>
</g>
<!-- axon&#45;modelling&#45;4.10.3\n(level 5/6)&#45;&gt;axon&#45;messaging&#45;4.10.3\n(level 6/6) -->
<g id="edge19" class="edge">
<title>axon&#45;modelling&#45;4.10.3\n(level 5/6)&#45;&gt;axon&#45;messaging&#45;4.10.3\n(level 6/6)</title>
<path fill="none" stroke="red" stroke-width="5.92" d="M292.7,-107.98C277.74,-95.72 259.84,-81.07 243.66,-67.81"/>
<polygon fill="red" stroke="red" stroke-width="5.92" points="247.13,-63.95 236.11,-61.63 240.56,-71.97 247.13,-63.95"/>
<text text-anchor="middle" x="273.34" y="-79.83" font-family="Helvetica,Arial,sans-serif" font-size="10.00">744</text>
</g>
<!-- axon&#45;spring&#45;boot&#45;autoconfigure&#45;4.10.3\n(level 0/6) -->
<g id="node4" class="node">
<title>axon&#45;spring&#45;boot&#45;autoconfigure&#45;4.10.3\n(level 0/6)</title>
<ellipse fill="#98dafe" stroke="#1178b2" cx="386" cy="-717.23" rx="165.81" ry="29.42"/>
<text text-anchor="middle" x="386" y="-721.43" font-family="Helvetica,Arial,sans-serif" font-size="14.00">axon&#45;spring&#45;boot&#45;autoconfigure&#45;4.10.3</text>
<text text-anchor="middle" x="386" y="-704.63" font-family="Helvetica,Arial,sans-serif" font-size="14.00">(level 0/6)</text>
</g>
<!-- axon&#45;spring&#45;boot&#45;autoconfigure&#45;4.10.3\n(level 0/6)&#45;&gt;axon&#45;eventsourcing&#45;4.10.3\n(level 4/6) -->
<g id="edge5" class="edge">
<title>axon&#45;spring&#45;boot&#45;autoconfigure&#45;4.10.3\n(level 0/6)&#45;&gt;axon&#45;eventsourcing&#45;4.10.3\n(level 4/6)</title>
<path fill="none" stroke="#1178b2" stroke-width="1.33" d="M472.21,-691.66C508.29,-675.62 542,-650.23 542,-611.4 542,-611.4 542,-611.4 542,-348.91 542,-326.68 535.17,-302.98 527.72,-283.74"/>
<polygon fill="#1178b2" stroke="#1178b2" stroke-width="1.33" points="530.98,-282.48 523.95,-274.55 524.51,-285.13 530.98,-282.48"/>
<text text-anchor="middle" x="547" y="-453.74" font-family="Helvetica,Arial,sans-serif" font-size="10.00">52</text>
</g>
<!-- axon&#45;spring&#45;boot&#45;autoconfigure&#45;4.10.3\n(level 0/6)&#45;&gt;axon&#45;messaging&#45;4.10.3\n(level 6/6) -->
<g id="edge4" class="edge">
<title>axon&#45;spring&#45;boot&#45;autoconfigure&#45;4.10.3\n(level 0/6)&#45;&gt;axon&#45;messaging&#45;4.10.3\n(level 6/6)</title>
<path fill="none" stroke="#1178b2" stroke-width="3.53" d="M238.42,-703.51C129.45,-689.89 0,-662.88 0,-611.4 0,-611.4 0,-611.4 0,-135.25 0,-87.92 44.72,-61.9 91.66,-47.63"/>
<polygon fill="#1178b2" stroke="#1178b2" stroke-width="3.53" points="92.4,-51.05 101.1,-45 90.53,-44.31 92.4,-51.05"/>
<text text-anchor="middle" x="7.5" y="-346.91" font-family="Helvetica,Arial,sans-serif" font-size="10.00">384</text>
</g>
<!-- axon&#45;spring&#45;boot&#45;autoconfigure&#45;4.10.3\n(level 0/6)&#45;&gt;axon&#45;modelling&#45;4.10.3\n(level 5/6) -->
<g id="edge7" class="edge">
<title>axon&#45;spring&#45;boot&#45;autoconfigure&#45;4.10.3\n(level 0/6)&#45;&gt;axon&#45;modelling&#45;4.10.3\n(level 5/6)</title>
<path fill="none" stroke="#1178b2" stroke-width="1.23" d="M278.56,-694.47C204.36,-676.24 119,-647.45 119,-611.4 119,-611.4 119,-611.4 119,-348.91 119,-265.22 202.75,-202.36 263.7,-167.69"/>
<polygon fill="#1178b2" stroke="#1178b2" stroke-width="1.23" points="265.36,-170.77 272.4,-162.86 261.96,-164.65 265.36,-170.77"/>
<text text-anchor="middle" x="124" y="-400.33" font-family="Helvetica,Arial,sans-serif" font-size="10.00">36</text>
</g>
<!-- axon&#45;configuration&#45;4.10.3\n(level 2/6) -->
<g id="node5" class="node">
<title>axon&#45;configuration&#45;4.10.3\n(level 2/6)</title>
<ellipse fill="#98dafe" stroke="#1178b2" cx="270" cy="-456.74" rx="115.23" ry="29.42"/>
<text text-anchor="middle" x="270" y="-460.94" font-family="Helvetica,Arial,sans-serif" font-size="14.00">axon&#45;configuration&#45;4.10.3</text>
<text text-anchor="middle" x="270" y="-444.14" font-family="Helvetica,Arial,sans-serif" font-size="14.00">(level 2/6)</text>
</g>
<!-- axon&#45;spring&#45;boot&#45;autoconfigure&#45;4.10.3\n(level 0/6)&#45;&gt;axon&#45;configuration&#45;4.10.3\n(level 2/6) -->
<g id="edge3" class="edge">
<title>axon&#45;spring&#45;boot&#45;autoconfigure&#45;4.10.3\n(level 0/6)&#45;&gt;axon&#45;configuration&#45;4.10.3\n(level 2/6)</title>
<path fill="none" stroke="#1178b2" stroke-width="1.49" d="M301.92,-691.47C277.33,-679.89 253.26,-663.3 239,-639.82 212.42,-596.04 231.08,-536.01 248.87,-497.05"/>
<polygon fill="#1178b2" stroke="#1178b2" stroke-width="1.49" points="251.94,-498.73 253.1,-488.2 245.63,-495.71 251.94,-498.73"/>
<text text-anchor="middle" x="244" y="-607.4" font-family="Helvetica,Arial,sans-serif" font-size="10.00">76</text>
</g>
<!-- axon&#45;server&#45;connector&#45;4.10.3\n(level 1/6) -->
<g id="node6" class="node">
<title>axon&#45;server&#45;connector&#45;4.10.3\n(level 1/6)</title>
<ellipse fill="#98dafe" stroke="#1178b2" cx="386" cy="-610.4" rx="128.41" ry="29.42"/>
<text text-anchor="middle" x="386" y="-614.6" font-family="Helvetica,Arial,sans-serif" font-size="14.00">axon&#45;server&#45;connector&#45;4.10.3</text>
<text text-anchor="middle" x="386" y="-597.8" font-family="Helvetica,Arial,sans-serif" font-size="14.00">(level 1/6)</text>
</g>
<!-- axon&#45;spring&#45;boot&#45;autoconfigure&#45;4.10.3\n(level 0/6)&#45;&gt;axon&#45;server&#45;connector&#45;4.10.3\n(level 1/6) -->
<g id="edge6" class="edge">
<title>axon&#45;spring&#45;boot&#45;autoconfigure&#45;4.10.3\n(level 0/6)&#45;&gt;axon&#45;server&#45;connector&#45;4.10.3\n(level 1/6)</title>
<path fill="none" stroke="red" stroke-width="1.57" d="M386,-687.59C386,-676.73 386,-664.14 386,-652.36"/>
<polygon fill="red" stroke="red" stroke-width="1.57" points="389.5,-652.39 386,-642.39 382.5,-652.39 389.5,-652.39"/>
<text text-anchor="middle" x="391" y="-660.82" font-family="Helvetica,Arial,sans-serif" font-size="10.00">88</text>
</g>
<!-- axon&#45;test&#45;4.10.3\n(level 1/6) -->
<g id="node7" class="node">
<title>axon&#45;test&#45;4.10.3\n(level 1/6)</title>
<ellipse fill="#98dafe" stroke="#1178b2" cx="646" cy="-349.91" rx="75.65" ry="29.42"/>
<text text-anchor="middle" x="646" y="-354.11" font-family="Helvetica,Arial,sans-serif" font-size="14.00">axon&#45;test&#45;4.10.3</text>
<text text-anchor="middle" x="646" y="-337.31" font-family="Helvetica,Arial,sans-serif" font-size="14.00">(level 1/6)</text>
</g>
<!-- axon&#45;spring&#45;boot&#45;autoconfigure&#45;4.10.3\n(level 0/6)&#45;&gt;axon&#45;test&#45;4.10.3\n(level 1/6) -->
<g id="edge8" class="edge">
<title>axon&#45;spring&#45;boot&#45;autoconfigure&#45;4.10.3\n(level 0/6)&#45;&gt;axon&#45;test&#45;4.10.3\n(level 1/6)</title>
<path fill="none" stroke="darkorange" stroke-width="1.01" d="M514.25,-698.33C529.93,-691.51 544.46,-682.27 556,-669.82 606.98,-614.82 567.54,-576.3 588,-504.16 599.32,-464.25 616.56,-420.09 629.3,-389.47"/>
<polygon fill="darkorange" stroke="darkorange" stroke-width="1.01" points="632.37,-391.21 633.01,-380.64 625.91,-388.5 632.37,-391.21"/>
<text text-anchor="middle" x="590.5" y="-530.57" font-family="Helvetica,Arial,sans-serif" font-size="10.00">4</text>
</g>
<!-- axon&#45;tracing&#45;opentelemetry&#45;4.10.3\n(level 1/6) -->
<g id="node8" class="node">
<title>axon&#45;tracing&#45;opentelemetry&#45;4.10.3\n(level 1/6)</title>
<ellipse fill="#98dafe" stroke="#1178b2" cx="747" cy="-533.57" rx="149.3" ry="29.42"/>
<text text-anchor="middle" x="747" y="-537.77" font-family="Helvetica,Arial,sans-serif" font-size="14.00">axon&#45;tracing&#45;opentelemetry&#45;4.10.3</text>
<text text-anchor="middle" x="747" y="-520.97" font-family="Helvetica,Arial,sans-serif" font-size="14.00">(level 1/6)</text>
</g>
<!-- axon&#45;spring&#45;boot&#45;autoconfigure&#45;4.10.3\n(level 0/6)&#45;&gt;axon&#45;tracing&#45;opentelemetry&#45;4.10.3\n(level 1/6) -->
<g id="edge9" class="edge">
<title>axon&#45;spring&#45;boot&#45;autoconfigure&#45;4.10.3\n(level 0/6)&#45;&gt;axon&#45;tracing&#45;opentelemetry&#45;4.10.3\n(level 1/6)</title>
<path fill="none" stroke="darkorange" stroke-width="1.01" d="M516.04,-698.67C543.71,-691.94 572.07,-682.64 597,-669.82 644.31,-645.48 688.23,-602.48 716.17,-571.49"/>
<polygon fill="darkorange" stroke="darkorange" stroke-width="1.01" points="718.58,-574.04 722.59,-564.24 713.34,-569.4 718.58,-574.04"/>
<text text-anchor="middle" x="619.77" y="-660.82" font-family="Helvetica,Arial,sans-serif" font-size="10.00">4</text>
</g>
<!-- axon&#45;configuration&#45;4.10.3\n(level 2/6)&#45;&gt;axon&#45;eventsourcing&#45;4.10.3\n(level 4/6) -->
<g id="edge15" class="edge">
<title>axon&#45;configuration&#45;4.10.3\n(level 2/6)&#45;&gt;axon&#45;eventsourcing&#45;4.10.3\n(level 4/6)</title>
<path fill="none" stroke="#1178b2" stroke-width="1.4" d="M341.22,-433.29C370.51,-421.14 402.9,-403.56 426,-379.33 433.67,-371.28 464.63,-319.66 486.49,-282.58"/>
<polygon fill="#1178b2" stroke="#1178b2" stroke-width="1.4" points="489.26,-284.78 491.31,-274.39 483.22,-281.23 489.26,-284.78"/>
<text text-anchor="middle" x="468.04" y="-346.91" font-family="Helvetica,Arial,sans-serif" font-size="10.00">62</text>
</g>
<!-- axon&#45;configuration&#45;4.10.3\n(level 2/6)&#45;&gt;axon&#45;messaging&#45;4.10.3\n(level 6/6) -->
<g id="edge17" class="edge">
<title>axon&#45;configuration&#45;4.10.3\n(level 2/6)&#45;&gt;axon&#45;messaging&#45;4.10.3\n(level 6/6)</title>
<path fill="none" stroke="#1178b2" stroke-width="4.5" d="M173.17,-440.39C139.31,-432.9 107.17,-422.59 97,-409.33 17.81,-306.09 113.14,-145.83 166.55,-71.22"/>
<polygon fill="#1178b2" stroke="#1178b2" stroke-width="4.5" points="169.64,-73.67 172.36,-63.27 163.28,-69.02 169.64,-73.67"/>
<text text-anchor="middle" x="94.23" y="-240.08" font-family="Helvetica,Arial,sans-serif" font-size="10.00">530</text>
</g>
<!-- axon&#45;configuration&#45;4.10.3\n(level 2/6)&#45;&gt;axon&#45;modelling&#45;4.10.3\n(level 5/6) -->
<g id="edge16" class="edge">
<title>axon&#45;configuration&#45;4.10.3\n(level 2/6)&#45;&gt;axon&#45;modelling&#45;4.10.3\n(level 5/6)</title>
<path fill="none" stroke="#1178b2" stroke-width="1.64" d="M310.83,-429.03C326.82,-416.13 343.38,-399.13 352,-379.33 362.43,-355.35 353.84,-346.58 352,-320.49 348.53,-271.32 339.88,-215.28 333.51,-178.25"/>
<polygon fill="#1178b2" stroke="#1178b2" stroke-width="1.64" points="336.96,-177.69 331.79,-168.44 330.07,-178.89 336.96,-177.69"/>
<text text-anchor="middle" x="355.42" y="-293.49" font-family="Helvetica,Arial,sans-serif" font-size="10.00">98</text>
</g>
<!-- axon&#45;disruptor&#45;4.10.3\n(level 3/6) -->
<g id="node9" class="node">
<title>axon&#45;disruptor&#45;4.10.3\n(level 3/6)</title>
<ellipse fill="#98dafe" stroke="#1178b2" cx="245" cy="-349.91" rx="97.64" ry="29.42"/>
<text text-anchor="middle" x="245" y="-354.11" font-family="Helvetica,Arial,sans-serif" font-size="14.00">axon&#45;disruptor&#45;4.10.3</text>
<text text-anchor="middle" x="245" y="-337.31" font-family="Helvetica,Arial,sans-serif" font-size="14.00">(level 3/6)</text>
</g>
<!-- axon&#45;configuration&#45;4.10.3\n(level 2/6)&#45;&gt;axon&#45;disruptor&#45;4.10.3\n(level 3/6) -->
<g id="edge18" class="edge">
<title>axon&#45;configuration&#45;4.10.3\n(level 2/6)&#45;&gt;axon&#45;disruptor&#45;4.10.3\n(level 3/6)</title>
<path fill="none" stroke="red" d="M263.17,-427.1C260.47,-415.77 257.32,-402.57 254.41,-390.36"/>
<polygon fill="red" stroke="red" points="257.9,-389.91 252.17,-380.99 251.09,-391.53 257.9,-389.91"/>
<text text-anchor="middle" x="260.75" y="-400.33" font-family="Helvetica,Arial,sans-serif" font-size="10.00">2</text>
</g>
<!-- axon&#45;server&#45;connector&#45;4.10.3\n(level 1/6)&#45;&gt;axon&#45;eventsourcing&#45;4.10.3\n(level 4/6) -->
<g id="edge12" class="edge">
<title>axon&#45;server&#45;connector&#45;4.10.3\n(level 1/6)&#45;&gt;axon&#45;eventsourcing&#45;4.10.3\n(level 4/6)</title>
<path fill="none" stroke="#1178b2" stroke-width="1.21" d="M420.56,-581.74C426.04,-576.03 431.16,-569.7 435,-562.99 486.89,-472.41 502.41,-347.65 507.04,-284.38"/>
<polygon fill="#1178b2" stroke="#1178b2" stroke-width="1.21" points="510.51,-284.98 507.69,-274.77 503.53,-284.51 510.51,-284.98"/>
<text text-anchor="middle" x="496.67" y="-400.33" font-family="Helvetica,Arial,sans-serif" font-size="10.00">34</text>
</g>
<!-- axon&#45;server&#45;connector&#45;4.10.3\n(level 1/6)&#45;&gt;axon&#45;messaging&#45;4.10.3\n(level 6/6) -->
<g id="edge10" class="edge">
<title>axon&#45;server&#45;connector&#45;4.10.3\n(level 1/6)&#45;&gt;axon&#45;messaging&#45;4.10.3\n(level 6/6)</title>
<path fill="none" stroke="#1178b2" stroke-width="6" d="M297.67,-588.76C196.04,-562.38 43,-513.41 43,-457.74 43,-457.74 43,-457.74 43,-135.25 43,-97.87 74.31,-72.91 108.79,-56.76"/>
<polygon fill="#1178b2" stroke="#1178b2" stroke-width="6" points="110.63,-61.69 117.75,-52.92 106.49,-52.04 110.63,-61.69"/>
<text text-anchor="middle" x="50.5" y="-293.49" font-family="Helvetica,Arial,sans-serif" font-size="10.00">756</text>
</g>
<!-- axon&#45;server&#45;connector&#45;4.10.3\n(level 1/6)&#45;&gt;axon&#45;modelling&#45;4.10.3\n(level 5/6) -->
<g id="edge13" class="edge">
<title>axon&#45;server&#45;connector&#45;4.10.3\n(level 1/6)&#45;&gt;axon&#45;modelling&#45;4.10.3\n(level 5/6)</title>
<path fill="none" stroke="#1178b2" d="M388.4,-580.54C390.36,-555.58 392.95,-518.52 394,-486.16 398.4,-350.31 391.93,-312.63 349,-183.66 348.16,-181.14 347.21,-178.59 346.18,-176.04"/>
<polygon fill="#1178b2" stroke="#1178b2" points="349.47,-174.82 342.24,-167.08 343.06,-177.64 349.47,-174.82"/>
<text text-anchor="middle" x="396.49" y="-346.91" font-family="Helvetica,Arial,sans-serif" font-size="10.00">2</text>
</g>
<!-- axon&#45;server&#45;connector&#45;4.10.3\n(level 1/6)&#45;&gt;axon&#45;configuration&#45;4.10.3\n(level 2/6) -->
<g id="edge11" class="edge">
<title>axon&#45;server&#45;connector&#45;4.10.3\n(level 1/6)&#45;&gt;axon&#45;configuration&#45;4.10.3\n(level 2/6)</title>
<path fill="none" stroke="red" stroke-width="1.24" d="M364.45,-581.23C345.95,-557.05 319.14,-521.98 298.8,-495.4"/>
<polygon fill="red" stroke="red" stroke-width="1.24" points="301.62,-493.33 292.77,-487.51 296.06,-497.58 301.62,-493.33"/>
<text text-anchor="middle" x="353.48" y="-530.57" font-family="Helvetica,Arial,sans-serif" font-size="10.00">38</text>
</g>
<!-- axon&#45;test&#45;4.10.3\n(level 1/6)&#45;&gt;axon&#45;eventsourcing&#45;4.10.3\n(level 4/6) -->
<g id="edge25" class="edge">
<title>axon&#45;test&#45;4.10.3\n(level 1/6)&#45;&gt;axon&#45;eventsourcing&#45;4.10.3\n(level 4/6)</title>
<path fill="none" stroke="#1178b2" stroke-width="1.13" d="M612.49,-323.26C594.79,-309.72 572.83,-292.92 553.7,-278.28"/>
<polygon fill="#1178b2" stroke="#1178b2" stroke-width="1.13" points="555.99,-275.63 545.92,-272.33 551.74,-281.19 555.99,-275.63"/>
<text text-anchor="middle" x="586.61" y="-293.49" font-family="Helvetica,Arial,sans-serif" font-size="10.00">22</text>
</g>
<!-- axon&#45;test&#45;4.10.3\n(level 1/6)&#45;&gt;axon&#45;messaging&#45;4.10.3\n(level 6/6) -->
<g id="edge24" class="edge">
<title>axon&#45;test&#45;4.10.3\n(level 1/6)&#45;&gt;axon&#45;messaging&#45;4.10.3\n(level 6/6)</title>
<path fill="none" stroke="#1178b2" stroke-width="3.77" d="M662.51,-320.71C665.19,-314.87 667.56,-308.62 669,-302.49 678,-264.05 688.05,-248.24 669,-213.66 600.73,-89.73 431.57,-49.22 315.72,-36.21"/>
<polygon fill="#1178b2" stroke="#1178b2" stroke-width="3.77" points="316.44,-32.77 306.13,-35.21 315.72,-39.73 316.44,-32.77"/>
<text text-anchor="middle" x="662.9" y="-186.66" font-family="Helvetica,Arial,sans-serif" font-size="10.00">420</text>
</g>
<!-- axon&#45;test&#45;4.10.3\n(level 1/6)&#45;&gt;axon&#45;modelling&#45;4.10.3\n(level 5/6) -->
<g id="edge23" class="edge">
<title>axon&#45;test&#45;4.10.3\n(level 1/6)&#45;&gt;axon&#45;modelling&#45;4.10.3\n(level 5/6)</title>
<path fill="none" stroke="#1178b2" stroke-width="1.64" d="M652.56,-320.14C657.62,-289.95 660.09,-242.89 635,-213.66 574.9,-143.64 522.49,-188.17 433,-165.66 425.99,-163.9 418.73,-162.04 411.45,-160.15"/>
<polygon fill="#1178b2" stroke="#1178b2" stroke-width="1.64" points="412.57,-156.83 402.01,-157.69 410.81,-163.6 412.57,-156.83"/>
<text text-anchor="middle" x="660.46" y="-240.08" font-family="Helvetica,Arial,sans-serif" font-size="10.00">98</text>
</g>
<!-- axon&#45;tracing&#45;opentelemetry&#45;4.10.3\n(level 1/6)&#45;&gt;axon&#45;messaging&#45;4.10.3\n(level 6/6) -->
<g id="edge14" class="edge">
<title>axon&#45;tracing&#45;opentelemetry&#45;4.10.3\n(level 1/6)&#45;&gt;axon&#45;messaging&#45;4.10.3\n(level 6/6)</title>
<path fill="none" stroke="#1178b2" stroke-width="1.15" d="M748.06,-503.8C748.92,-477.81 750,-438.51 750,-404.33 750,-404.33 750,-404.33 750,-135.25 750,-90.68 468.73,-56.32 307.75,-40.31"/>
<polygon fill="#1178b2" stroke="#1178b2" stroke-width="1.15" points="308.4,-36.86 298.1,-39.36 307.71,-43.82 308.4,-36.86"/>
<text text-anchor="middle" x="755" y="-293.49" font-family="Helvetica,Arial,sans-serif" font-size="10.00">24</text>
</g>
<!-- axon&#45;disruptor&#45;4.10.3\n(level 3/6)&#45;&gt;axon&#45;eventsourcing&#45;4.10.3\n(level 4/6) -->
<g id="edge20" class="edge">
<title>axon&#45;disruptor&#45;4.10.3\n(level 3/6)&#45;&gt;axon&#45;eventsourcing&#45;4.10.3\n(level 4/6)</title>
<path fill="none" stroke="red" stroke-width="1.19" d="M302.94,-325.9C342.31,-310.27 394.69,-289.47 436.78,-272.76"/>
<polygon fill="red" stroke="red" stroke-width="1.19" points="437.85,-276.1 445.85,-269.15 435.26,-269.59 437.85,-276.1"/>
<text text-anchor="middle" x="389.92" y="-293.49" font-family="Helvetica,Arial,sans-serif" font-size="10.00">30</text>
</g>
<!-- axon&#45;disruptor&#45;4.10.3\n(level 3/6)&#45;&gt;axon&#45;messaging&#45;4.10.3\n(level 6/6) -->
<g id="edge21" class="edge">
<title>axon&#45;disruptor&#45;4.10.3\n(level 3/6)&#45;&gt;axon&#45;messaging&#45;4.10.3\n(level 6/6)</title>
<path fill="none" stroke="#1178b2" stroke-width="2.23" d="M239.94,-320.08C233.69,-284.02 222.92,-220.38 215,-165.66 210.48,-134.45 206.06,-99.08 202.86,-72.34"/>
<polygon fill="#1178b2" stroke="#1178b2" stroke-width="2.23" points="206.36,-72.09 201.7,-62.57 199.4,-72.91 206.36,-72.09"/>
<text text-anchor="middle" x="226.81" y="-186.66" font-family="Helvetica,Arial,sans-serif" font-size="10.00">188</text>
</g>
<!-- axon&#45;disruptor&#45;4.10.3\n(level 3/6)&#45;&gt;axon&#45;modelling&#45;4.10.3\n(level 5/6) -->
<g id="edge22" class="edge">
<title>axon&#45;disruptor&#45;4.10.3\n(level 3/6)&#45;&gt;axon&#45;modelling&#45;4.10.3\n(level 5/6)</title>
<path fill="none" stroke="#1178b2" stroke-width="1.27" d="M255.92,-320.36C270.09,-283.33 294.89,-218.55 310.86,-176.8"/>
<polygon fill="#1178b2" stroke="#1178b2" stroke-width="1.27" points="314.13,-178.06 314.43,-167.47 307.59,-175.56 314.13,-178.06"/>
<text text-anchor="middle" x="301.19" y="-240.08" font-family="Helvetica,Arial,sans-serif" font-size="10.00">42</text>
</g>
</g>
</svg>

