<?xml version="1.0" encoding="UTF-8" standalone="no"?>
<!DOCTYPE svg PUBLIC "-//W3C//DTD SVG 1.1//EN"
 "http://www.w3.org/Graphics/SVG/1.1/DTD/svg11.dtd">
<!-- Generated by graphviz version 12.2.1 (0)
 -->
<!-- Title: JavaArtifactLongestPaths Pages: 1 -->
<svg width="906pt" height="755pt"
 viewBox="0.00 0.00 905.65 754.65" xmlns="http://www.w3.org/2000/svg" xmlns:xlink="http://www.w3.org/1999/xlink">
<g id="graph0" class="graph" transform="scale(1 1) rotate(0) translate(4 750.65)">
<title>JavaArtifactLongestPaths</title>
<polygon fill="white" stroke="none" points="-4,4 -4,-750.65 901.65,-750.65 901.65,4 -4,4"/>
<!-- axon&#45;disruptor&#45;4.11.0\n(level 3/6) -->
<g id="node1" class="node">
<title>axon&#45;disruptor&#45;4.11.0\n(level 3/6)</title>
<ellipse fill="#98dafe" stroke="#1178b2" cx="406" cy="-349.91" rx="97.64" ry="29.42"/>
<text text-anchor="middle" x="406" y="-354.11" font-family="Helvetica,Arial,sans-serif" font-size="14.00">axon&#45;disruptor&#45;4.11.0</text>
<text text-anchor="middle" x="406" y="-337.31" font-family="Helvetica,Arial,sans-serif" font-size="14.00">(level 3/6)</text>
</g>
<!-- axon&#45;messaging&#45;4.11.0\n(level 6/6) -->
<g id="node2" class="node">
<title>axon&#45;messaging&#45;4.11.0\n(level 6/6)</title>
<ellipse fill="#98dafe" stroke="#1178b2" cx="275" cy="-29.42" rx="103.69" ry="29.42"/>
<text text-anchor="middle" x="275" y="-33.62" font-family="Helvetica,Arial,sans-serif" font-size="14.00">axon&#45;messaging&#45;4.11.0</text>
<text text-anchor="middle" x="275" y="-16.82" font-family="Helvetica,Arial,sans-serif" font-size="14.00">(level 6/6)</text>
</g>
<!-- axon&#45;disruptor&#45;4.11.0\n(level 3/6)&#45;&gt;axon&#45;messaging&#45;4.11.0\n(level 6/6) -->
<g id="edge1" class="edge">
<title>axon&#45;disruptor&#45;4.11.0\n(level 3/6)&#45;&gt;axon&#45;messaging&#45;4.11.0\n(level 6/6)</title>
<path fill="none" stroke="#1178b2" stroke-width="2.23" d="M392.16,-320.35C375.03,-284.58 345.39,-221.22 323,-165.66 310.43,-134.48 297.78,-98.6 288.62,-71.64"/>
<polygon fill="#1178b2" stroke="#1178b2" stroke-width="2.23" points="292.01,-70.73 285.5,-62.37 285.38,-72.97 292.01,-70.73"/>
<text text-anchor="middle" x="342.61" y="-186.66" font-family="Helvetica,Arial,sans-serif" font-size="10.00">188</text>
</g>
<!-- axon&#45;modelling&#45;4.11.0\n(level 5/6) -->
<g id="node3" class="node">
<title>axon&#45;modelling&#45;4.11.0\n(level 5/6)</title>
<ellipse fill="#98dafe" stroke="#1178b2" cx="434" cy="-136.25" rx="102.04" ry="29.42"/>
<text text-anchor="middle" x="434" y="-140.45" font-family="Helvetica,Arial,sans-serif" font-size="14.00">axon&#45;modelling&#45;4.11.0</text>
<text text-anchor="middle" x="434" y="-123.65" font-family="Helvetica,Arial,sans-serif" font-size="14.00">(level 5/6)</text>
</g>
<!-- axon&#45;disruptor&#45;4.11.0\n(level 3/6)&#45;&gt;axon&#45;modelling&#45;4.11.0\n(level 5/6) -->
<g id="edge2" class="edge">
<title>axon&#45;disruptor&#45;4.11.0\n(level 3/6)&#45;&gt;axon&#45;modelling&#45;4.11.0\n(level 5/6)</title>
<path fill="none" stroke="#1178b2" stroke-width="1.27" d="M404.58,-320.19C403.76,-292.66 403.87,-250.03 410,-213.66 412.04,-201.53 415.54,-188.65 419.25,-176.99"/>
<polygon fill="#1178b2" stroke="#1178b2" stroke-width="1.27" points="422.52,-178.23 422.37,-167.64 415.88,-176.02 422.52,-178.23"/>
<text text-anchor="middle" x="415" y="-240.08" font-family="Helvetica,Arial,sans-serif" font-size="10.00">42</text>
</g>
<!-- axon&#45;eventsourcing&#45;4.11.0\n(level 4/6) -->
<g id="node4" class="node">
<title>axon&#45;eventsourcing&#45;4.11.0\n(level 4/6)</title>
<ellipse fill="#98dafe" stroke="#1178b2" cx="579" cy="-243.08" rx="117.43" ry="29.42"/>
<text text-anchor="middle" x="579" y="-247.28" font-family="Helvetica,Arial,sans-serif" font-size="14.00">axon&#45;eventsourcing&#45;4.11.0</text>
<text text-anchor="middle" x="579" y="-230.48" font-family="Helvetica,Arial,sans-serif" font-size="14.00">(level 4/6)</text>
</g>
<!-- axon&#45;disruptor&#45;4.11.0\n(level 3/6)&#45;&gt;axon&#45;eventsourcing&#45;4.11.0\n(level 4/6) -->
<g id="edge3" class="edge">
<title>axon&#45;disruptor&#45;4.11.0\n(level 3/6)&#45;&gt;axon&#45;eventsourcing&#45;4.11.0\n(level 4/6)</title>
<path fill="none" stroke="red" stroke-width="1.19" d="M448.76,-323C471.81,-309.03 500.46,-291.67 525.03,-276.78"/>
<polygon fill="red" stroke="red" stroke-width="1.19" points="526.64,-279.9 533.38,-271.72 523.02,-273.91 526.64,-279.9"/>
<text text-anchor="middle" x="502.69" y="-293.49" font-family="Helvetica,Arial,sans-serif" font-size="10.00">30</text>
</g>
<!-- axon&#45;modelling&#45;4.11.0\n(level 5/6)&#45;&gt;axon&#45;messaging&#45;4.11.0\n(level 6/6) -->
<g id="edge5" class="edge">
<title>axon&#45;modelling&#45;4.11.0\n(level 5/6)&#45;&gt;axon&#45;messaging&#45;4.11.0\n(level 6/6)</title>
<path fill="none" stroke="red" stroke-width="5.92" d="M393.88,-108.79C374.11,-95.76 349.99,-79.85 328.65,-65.79"/>
<polygon fill="red" stroke="red" stroke-width="5.92" points="331.68,-61.58 320.48,-60.4 325.98,-70.23 331.68,-61.58"/>
<text text-anchor="middle" x="366.77" y="-79.83" font-family="Helvetica,Arial,sans-serif" font-size="10.00">744</text>
</g>
<!-- axon&#45;eventsourcing&#45;4.11.0\n(level 4/6)&#45;&gt;axon&#45;messaging&#45;4.11.0\n(level 6/6) -->
<g id="edge6" class="edge">
<title>axon&#45;eventsourcing&#45;4.11.0\n(level 4/6)&#45;&gt;axon&#45;messaging&#45;4.11.0\n(level 6/6)</title>
<path fill="none" stroke="#1178b2" stroke-width="5.3" d="M579.7,-213.27C578.83,-182.81 572.66,-135.32 545,-106.83 505.47,-66.12 446.02,-46.64 392.96,-37.49"/>
<polygon fill="#1178b2" stroke="#1178b2" stroke-width="5.3" points="393.91,-32.95 383.31,-35.99 392.48,-42.11 393.91,-32.95"/>
<text text-anchor="middle" x="581" y="-133.25" font-family="Helvetica,Arial,sans-serif" font-size="10.00">650</text>
</g>
<!-- axon&#45;eventsourcing&#45;4.11.0\n(level 4/6)&#45;&gt;axon&#45;modelling&#45;4.11.0\n(level 5/6) -->
<g id="edge7" class="edge">
<title>axon&#45;eventsourcing&#45;4.11.0\n(level 4/6)&#45;&gt;axon&#45;modelling&#45;4.11.0\n(level 5/6)</title>
<path fill="none" stroke="red" stroke-width="1.52" d="M541.28,-214.81C522.85,-201.48 500.48,-185.31 480.95,-171.19"/>
<polygon fill="red" stroke="red" stroke-width="1.52" points="483.05,-168.39 472.89,-165.37 478.95,-174.06 483.05,-168.39"/>
<text text-anchor="middle" x="515.85" y="-186.66" font-family="Helvetica,Arial,sans-serif" font-size="10.00">80</text>
</g>
<!-- axon&#45;tracing&#45;opentelemetry&#45;4.11.0\n(level 1/6) -->
<g id="node5" class="node">
<title>axon&#45;tracing&#45;opentelemetry&#45;4.11.0\n(level 1/6)</title>
<ellipse fill="#98dafe" stroke="#1178b2" cx="164" cy="-533.57" rx="149.3" ry="29.42"/>
<text text-anchor="middle" x="164" y="-537.77" font-family="Helvetica,Arial,sans-serif" font-size="14.00">axon&#45;tracing&#45;opentelemetry&#45;4.11.0</text>
<text text-anchor="middle" x="164" y="-520.97" font-family="Helvetica,Arial,sans-serif" font-size="14.00">(level 1/6)</text>
</g>
<!-- axon&#45;tracing&#45;opentelemetry&#45;4.11.0\n(level 1/6)&#45;&gt;axon&#45;messaging&#45;4.11.0\n(level 6/6) -->
<g id="edge4" class="edge">
<title>axon&#45;tracing&#45;opentelemetry&#45;4.11.0\n(level 1/6)&#45;&gt;axon&#45;messaging&#45;4.11.0\n(level 6/6)</title>
<path fill="none" stroke="#1178b2" stroke-width="1.15" d="M164,-503.79C164,-477.8 164,-438.5 164,-404.33 164,-404.33 164,-404.33 164,-135.25 164,-107.18 169.17,-97.65 188,-76.83 193.61,-70.63 200.24,-65.11 207.3,-60.23"/>
<polygon fill="#1178b2" stroke="#1178b2" stroke-width="1.15" points="209.11,-63.23 215.67,-54.91 205.35,-57.32 209.11,-63.23"/>
<text text-anchor="middle" x="169" y="-293.49" font-family="Helvetica,Arial,sans-serif" font-size="10.00">24</text>
</g>
<!-- axon&#45;server&#45;connector&#45;4.11.0\n(level 1/6) -->
<g id="node6" class="node">
<title>axon&#45;server&#45;connector&#45;4.11.0\n(level 1/6)</title>
<ellipse fill="#98dafe" stroke="#1178b2" cx="510" cy="-610.4" rx="128.41" ry="29.42"/>
<text text-anchor="middle" x="510" y="-614.6" font-family="Helvetica,Arial,sans-serif" font-size="14.00">axon&#45;server&#45;connector&#45;4.11.0</text>
<text text-anchor="middle" x="510" y="-597.8" font-family="Helvetica,Arial,sans-serif" font-size="14.00">(level 1/6)</text>
</g>
<!-- axon&#45;server&#45;connector&#45;4.11.0\n(level 1/6)&#45;&gt;axon&#45;messaging&#45;4.11.0\n(level 6/6) -->
<g id="edge8" class="edge">
<title>axon&#45;server&#45;connector&#45;4.11.0\n(level 1/6)&#45;&gt;axon&#45;messaging&#45;4.11.0\n(level 6/6)</title>
<path fill="none" stroke="#1178b2" stroke-width="6" d="M451.18,-583.86C437.19,-577.38 422.43,-570.2 409,-562.99 365.24,-539.5 359.72,-523.56 314,-504.16 284.03,-491.44 262.99,-511.85 243,-486.16 147.64,-363.6 216.85,-161.95 254.69,-73.86"/>
<polygon fill="#1178b2" stroke="#1178b2" stroke-width="6" points="259.4,-76.2 258.63,-64.93 249.79,-71.96 259.4,-76.2"/>
<text text-anchor="middle" x="203.82" y="-293.49" font-family="Helvetica,Arial,sans-serif" font-size="10.00">756</text>
</g>
<!-- axon&#45;server&#45;connector&#45;4.11.0\n(level 1/6)&#45;&gt;axon&#45;modelling&#45;4.11.0\n(level 5/6) -->
<g id="edge11" class="edge">
<title>axon&#45;server&#45;connector&#45;4.11.0\n(level 1/6)&#45;&gt;axon&#45;modelling&#45;4.11.0\n(level 5/6)</title>
<path fill="none" stroke="#1178b2" d="M527.78,-580.91C559.62,-525.85 618.22,-403.01 564,-320.49 549.24,-298.03 469.29,-293.87 453,-272.49 432.48,-245.56 428.94,-206.58 429.82,-177.38"/>
<polygon fill="#1178b2" stroke="#1178b2" points="433.32,-177.6 430.33,-167.44 426.32,-177.25 433.32,-177.6"/>
<text text-anchor="middle" x="587.32" y="-346.91" font-family="Helvetica,Arial,sans-serif" font-size="10.00">2</text>
</g>
<!-- axon&#45;server&#45;connector&#45;4.11.0\n(level 1/6)&#45;&gt;axon&#45;eventsourcing&#45;4.11.0\n(level 4/6) -->
<g id="edge10" class="edge">
<title>axon&#45;server&#45;connector&#45;4.11.0\n(level 1/6)&#45;&gt;axon&#45;eventsourcing&#45;4.11.0\n(level 4/6)</title>
<path fill="none" stroke="#1178b2" stroke-width="1.21" d="M574.77,-584.75C583.2,-578.87 590.73,-571.7 596,-562.99 649.23,-475.07 616.46,-347.26 594.32,-283.43"/>
<polygon fill="#1178b2" stroke="#1178b2" stroke-width="1.21" points="597.75,-282.61 591.09,-274.37 591.16,-284.97 597.75,-282.61"/>
<text text-anchor="middle" x="627.85" y="-400.33" font-family="Helvetica,Arial,sans-serif" font-size="10.00">34</text>
</g>
<!-- axon&#45;configuration&#45;4.11.0\n(level 2/6) -->
<g id="node7" class="node">
<title>axon&#45;configuration&#45;4.11.0\n(level 2/6)</title>
<ellipse fill="#98dafe" stroke="#1178b2" cx="367" cy="-456.74" rx="115.23" ry="29.42"/>
<text text-anchor="middle" x="367" y="-460.94" font-family="Helvetica,Arial,sans-serif" font-size="14.00">axon&#45;configuration&#45;4.11.0</text>
<text text-anchor="middle" x="367" y="-444.14" font-family="Helvetica,Arial,sans-serif" font-size="14.00">(level 2/6)</text>
</g>
<!-- axon&#45;server&#45;connector&#45;4.11.0\n(level 1/6)&#45;&gt;axon&#45;configuration&#45;4.11.0\n(level 2/6) -->
<g id="edge9" class="edge">
<title>axon&#45;server&#45;connector&#45;4.11.0\n(level 1/6)&#45;&gt;axon&#45;configuration&#45;4.11.0\n(level 2/6)</title>
<path fill="none" stroke="red" stroke-width="1.25" d="M483.44,-581.23C460.26,-556.65 426.49,-520.84 401.28,-494.1"/>
<polygon fill="red" stroke="red" stroke-width="1.25" points="404.12,-492.01 394.72,-487.14 399.03,-496.81 404.12,-492.01"/>
<text text-anchor="middle" x="468.75" y="-530.57" font-family="Helvetica,Arial,sans-serif" font-size="10.00">40</text>
</g>
<!-- axon&#45;configuration&#45;4.11.0\n(level 2/6)&#45;&gt;axon&#45;disruptor&#45;4.11.0\n(level 3/6) -->
<g id="edge22" class="edge">
<title>axon&#45;configuration&#45;4.11.0\n(level 2/6)&#45;&gt;axon&#45;disruptor&#45;4.11.0\n(level 3/6)</title>
<path fill="none" stroke="red" d="M377.66,-427.1C381.91,-415.65 386.88,-402.3 391.46,-389.99"/>
<polygon fill="red" stroke="red" points="394.62,-391.53 394.83,-380.94 388.06,-389.09 394.62,-391.53"/>
<text text-anchor="middle" x="390.17" y="-400.33" font-family="Helvetica,Arial,sans-serif" font-size="10.00">2</text>
</g>
<!-- axon&#45;configuration&#45;4.11.0\n(level 2/6)&#45;&gt;axon&#45;messaging&#45;4.11.0\n(level 6/6) -->
<g id="edge21" class="edge">
<title>axon&#45;configuration&#45;4.11.0\n(level 2/6)&#45;&gt;axon&#45;messaging&#45;4.11.0\n(level 6/6)</title>
<path fill="none" stroke="#1178b2" stroke-width="4.5" d="M325.08,-428.97C317.53,-423.06 310.13,-416.42 304,-409.33 294.12,-397.89 291.94,-393.91 288,-379.33 259.32,-273.04 264.79,-141.96 270.39,-74.76"/>
<polygon fill="#1178b2" stroke="#1178b2" stroke-width="4.5" points="274.27,-75.53 271.25,-65.22 266.43,-74.82 274.27,-75.53"/>
<text text-anchor="middle" x="277.24" y="-240.08" font-family="Helvetica,Arial,sans-serif" font-size="10.00">530</text>
</g>
<!-- axon&#45;configuration&#45;4.11.0\n(level 2/6)&#45;&gt;axon&#45;modelling&#45;4.11.0\n(level 5/6) -->
<g id="edge20" class="edge">
<title>axon&#45;configuration&#45;4.11.0\n(level 2/6)&#45;&gt;axon&#45;modelling&#45;4.11.0\n(level 5/6)</title>
<path fill="none" stroke="#1178b2" stroke-width="1.64" d="M333.73,-428.4C320.22,-415.17 306.14,-398.08 299,-379.33 289.7,-354.89 290.84,-345.33 299,-320.49 318.08,-262.43 363.39,-207.63 396.26,-173.35"/>
<polygon fill="#1178b2" stroke="#1178b2" stroke-width="1.64" points="398.53,-176.04 403.02,-166.44 393.52,-171.15 398.53,-176.04"/>
<text text-anchor="middle" x="315.45" y="-293.49" font-family="Helvetica,Arial,sans-serif" font-size="10.00">98</text>
</g>
<!-- axon&#45;configuration&#45;4.11.0\n(level 2/6)&#45;&gt;axon&#45;eventsourcing&#45;4.11.0\n(level 4/6) -->
<g id="edge19" class="edge">
<title>axon&#45;configuration&#45;4.11.0\n(level 2/6)&#45;&gt;axon&#45;eventsourcing&#45;4.11.0\n(level 4/6)</title>
<path fill="none" stroke="#1178b2" stroke-width="1.4" d="M432.41,-432.21C459.93,-419.8 490.66,-402.3 513,-379.33 539.13,-352.45 556.7,-313.23 567.1,-283.93"/>
<polygon fill="#1178b2" stroke="#1178b2" stroke-width="1.4" points="570.28,-285.44 570.18,-274.85 563.65,-283.19 570.28,-285.44"/>
<text text-anchor="middle" x="556.8" y="-346.91" font-family="Helvetica,Arial,sans-serif" font-size="10.00">62</text>
</g>
<!-- axon&#45;spring&#45;boot&#45;autoconfigure&#45;4.11.0\n(level 0/6) -->
<g id="node8" class="node">
<title>axon&#45;spring&#45;boot&#45;autoconfigure&#45;4.11.0\n(level 0/6)</title>
<ellipse fill="#98dafe" stroke="#1178b2" cx="510" cy="-717.23" rx="165.81" ry="29.42"/>
<text text-anchor="middle" x="510" y="-721.43" font-family="Helvetica,Arial,sans-serif" font-size="14.00">axon&#45;spring&#45;boot&#45;autoconfigure&#45;4.11.0</text>
<text text-anchor="middle" x="510" y="-704.63" font-family="Helvetica,Arial,sans-serif" font-size="14.00">(level 0/6)</text>
</g>
<!-- axon&#45;spring&#45;boot&#45;autoconfigure&#45;4.11.0\n(level 0/6)&#45;&gt;axon&#45;messaging&#45;4.11.0\n(level 6/6) -->
<g id="edge14" class="edge">
<title>axon&#45;spring&#45;boot&#45;autoconfigure&#45;4.11.0\n(level 0/6)&#45;&gt;axon&#45;messaging&#45;4.11.0\n(level 6/6)</title>
<path fill="none" stroke="#1178b2" stroke-width="3.82" d="M345.12,-713.41C196.12,-706.23 0,-683.15 0,-611.4 0,-611.4 0,-611.4 0,-135.25 0,-96.81 95,-67.34 173.33,-49.57"/>
<polygon fill="#1178b2" stroke="#1178b2" stroke-width="3.82" points="174.08,-52.99 183.1,-47.42 172.58,-46.16 174.08,-52.99"/>
<text text-anchor="middle" x="7.5" y="-346.91" font-family="Helvetica,Arial,sans-serif" font-size="10.00">428</text>
</g>
<!-- axon&#45;spring&#45;boot&#45;autoconfigure&#45;4.11.0\n(level 0/6)&#45;&gt;axon&#45;modelling&#45;4.11.0\n(level 5/6) -->
<g id="edge16" class="edge">
<title>axon&#45;spring&#45;boot&#45;autoconfigure&#45;4.11.0\n(level 0/6)&#45;&gt;axon&#45;modelling&#45;4.11.0\n(level 5/6)</title>
<path fill="none" stroke="#1178b2" stroke-width="1.23" d="M633.1,-697.13C678.01,-682.54 718,-656.8 718,-611.4 718,-611.4 718,-611.4 718,-402.33 718,-318.28 758,-278.89 705,-213.66 701.92,-209.88 597.29,-181.09 518.96,-159.96"/>
<polygon fill="#1178b2" stroke="#1178b2" stroke-width="1.23" points="519.98,-156.61 509.41,-157.39 518.15,-163.37 519.98,-156.61"/>
<text text-anchor="middle" x="723" y="-400.33" font-family="Helvetica,Arial,sans-serif" font-size="10.00">36</text>
</g>
<!-- axon&#45;spring&#45;boot&#45;autoconfigure&#45;4.11.0\n(level 0/6)&#45;&gt;axon&#45;eventsourcing&#45;4.11.0\n(level 4/6) -->
<g id="edge13" class="edge">
<title>axon&#45;spring&#45;boot&#45;autoconfigure&#45;4.11.0\n(level 0/6)&#45;&gt;axon&#45;eventsourcing&#45;4.11.0\n(level 4/6)</title>
<path fill="none" stroke="#1178b2" stroke-width="1.33" d="M596.21,-691.66C632.29,-675.62 666,-650.23 666,-611.4 666,-611.4 666,-611.4 666,-348.91 666,-321.2 647.78,-296.9 628.01,-278.68"/>
<polygon fill="#1178b2" stroke="#1178b2" stroke-width="1.33" points="630.55,-276.25 620.71,-272.33 625.95,-281.53 630.55,-276.25"/>
<text text-anchor="middle" x="671" y="-453.74" font-family="Helvetica,Arial,sans-serif" font-size="10.00">52</text>
</g>
<!-- axon&#45;spring&#45;boot&#45;autoconfigure&#45;4.11.0\n(level 0/6)&#45;&gt;axon&#45;tracing&#45;opentelemetry&#45;4.11.0\n(level 1/6) -->
<g id="edge18" class="edge">
<title>axon&#45;spring&#45;boot&#45;autoconfigure&#45;4.11.0\n(level 0/6)&#45;&gt;axon&#45;tracing&#45;opentelemetry&#45;4.11.0\n(level 1/6)</title>
<path fill="none" stroke="darkorange" stroke-width="1.01" d="M401.03,-694.74C378.56,-688.28 355.52,-680.09 335,-669.82 283.58,-644.07 232.97,-601.25 200.31,-570.69"/>
<polygon fill="darkorange" stroke="darkorange" stroke-width="1.01" points="202.78,-568.2 193.11,-563.86 197.96,-573.28 202.78,-568.2"/>
<text text-anchor="middle" x="337.5" y="-660.82" font-family="Helvetica,Arial,sans-serif" font-size="10.00">4</text>
</g>
<!-- axon&#45;spring&#45;boot&#45;autoconfigure&#45;4.11.0\n(level 0/6)&#45;&gt;axon&#45;server&#45;connector&#45;4.11.0\n(level 1/6) -->
<g id="edge12" class="edge">
<title>axon&#45;spring&#45;boot&#45;autoconfigure&#45;4.11.0\n(level 0/6)&#45;&gt;axon&#45;server&#45;connector&#45;4.11.0\n(level 1/6)</title>
<path fill="none" stroke="red" stroke-width="1.57" d="M510,-687.59C510,-676.73 510,-664.14 510,-652.36"/>
<polygon fill="red" stroke="red" stroke-width="1.57" points="513.5,-652.39 510,-642.39 506.5,-652.39 513.5,-652.39"/>
<text text-anchor="middle" x="515" y="-660.82" font-family="Helvetica,Arial,sans-serif" font-size="10.00">88</text>
</g>
<!-- axon&#45;spring&#45;boot&#45;autoconfigure&#45;4.11.0\n(level 0/6)&#45;&gt;axon&#45;configuration&#45;4.11.0\n(level 2/6) -->
<g id="edge15" class="edge">
<title>axon&#45;spring&#45;boot&#45;autoconfigure&#45;4.11.0\n(level 0/6)&#45;&gt;axon&#45;configuration&#45;4.11.0\n(level 2/6)</title>
<path fill="none" stroke="#1178b2" stroke-width="1.61" d="M425.92,-691.47C401.33,-679.89 377.26,-663.3 363,-639.82 337.01,-597.02 344.71,-537.5 354.36,-498.32"/>
<polygon fill="#1178b2" stroke="#1178b2" stroke-width="1.61" points="357.72,-499.28 356.9,-488.72 350.96,-497.49 357.72,-499.28"/>
<text text-anchor="middle" x="368" y="-607.4" font-family="Helvetica,Arial,sans-serif" font-size="10.00">94</text>
</g>
<!-- axon&#45;test&#45;4.11.0\n(level 1/6) -->
<g id="node9" class="node">
<title>axon&#45;test&#45;4.11.0\n(level 1/6)</title>
<ellipse fill="#98dafe" stroke="#1178b2" cx="822" cy="-349.91" rx="75.65" ry="29.42"/>
<text text-anchor="middle" x="822" y="-354.11" font-family="Helvetica,Arial,sans-serif" font-size="14.00">axon&#45;test&#45;4.11.0</text>
<text text-anchor="middle" x="822" y="-337.31" font-family="Helvetica,Arial,sans-serif" font-size="14.00">(level 1/6)</text>
</g>
<!-- axon&#45;spring&#45;boot&#45;autoconfigure&#45;4.11.0\n(level 0/6)&#45;&gt;axon&#45;test&#45;4.11.0\n(level 1/6) -->
<g id="edge17" class="edge">
<title>axon&#45;spring&#45;boot&#45;autoconfigure&#45;4.11.0\n(level 0/6)&#45;&gt;axon&#45;test&#45;4.11.0\n(level 1/6)</title>
<path fill="none" stroke="darkorange" stroke-width="1.01" d="M644.68,-699.78C682.97,-692.62 718.08,-682.82 732,-669.82 810.95,-596.13 822.51,-459.02 823.06,-391.13"/>
<polygon fill="darkorange" stroke="darkorange" stroke-width="1.01" points="826.56,-391.21 823.05,-381.21 819.56,-391.21 826.56,-391.21"/>
<text text-anchor="middle" x="814.68" y="-530.57" font-family="Helvetica,Arial,sans-serif" font-size="10.00">4</text>
</g>
<!-- axon&#45;test&#45;4.11.0\n(level 1/6)&#45;&gt;axon&#45;messaging&#45;4.11.0\n(level 6/6) -->
<g id="edge23" class="edge">
<title>axon&#45;test&#45;4.11.0\n(level 1/6)&#45;&gt;axon&#45;messaging&#45;4.11.0\n(level 6/6)</title>
<path fill="none" stroke="#1178b2" stroke-width="3.77" d="M826.02,-320.27C828.59,-290.83 828.03,-245 806,-213.66 713.59,-82.22 520.2,-44.07 394.07,-33.57"/>
<polygon fill="#1178b2" stroke="#1178b2" stroke-width="3.77" points="394.58,-30.09 384.34,-32.82 394.05,-37.07 394.58,-30.09"/>
<text text-anchor="middle" x="799.57" y="-186.66" font-family="Helvetica,Arial,sans-serif" font-size="10.00">420</text>
</g>
<!-- axon&#45;test&#45;4.11.0\n(level 1/6)&#45;&gt;axon&#45;modelling&#45;4.11.0\n(level 5/6) -->
<g id="edge24" class="edge">
<title>axon&#45;test&#45;4.11.0\n(level 1/6)&#45;&gt;axon&#45;modelling&#45;4.11.0\n(level 5/6)</title>
<path fill="none" stroke="#1178b2" stroke-width="1.64" d="M811.35,-320.29C794.82,-277.53 762.37,-200.19 738,-183.66 701.61,-158.99 584.29,-173.33 541,-165.66 533.05,-164.25 524.83,-162.54 516.65,-160.67"/>
<polygon fill="#1178b2" stroke="#1178b2" stroke-width="1.64" points="517.66,-157.31 507.12,-158.39 516.04,-164.12 517.66,-157.31"/>
<text text-anchor="middle" x="796.66" y="-240.08" font-family="Helvetica,Arial,sans-serif" font-size="10.00">98</text>
</g>
<!-- axon&#45;test&#45;4.11.0\n(level 1/6)&#45;&gt;axon&#45;eventsourcing&#45;4.11.0\n(level 4/6) -->
<g id="edge25" class="edge">
<title>axon&#45;test&#45;4.11.0\n(level 1/6)&#45;&gt;axon&#45;eventsourcing&#45;4.11.0\n(level 4/6)</title>
<path fill="none" stroke="#1178b2" stroke-width="1.13" d="M772.24,-327.44C736.24,-311.91 687.16,-290.74 647.47,-273.62"/>
<polygon fill="#1178b2" stroke="#1178b2" stroke-width="1.13" points="648.95,-270.44 638.38,-269.69 646.17,-276.87 648.95,-270.44"/>
<text text-anchor="middle" x="712.79" y="-293.49" font-family="Helvetica,Arial,sans-serif" font-size="10.00">22</text>
</g>
</g>
</svg>

