<?xml version="1.0" encoding="UTF-8" standalone="no"?>
<!DOCTYPE svg PUBLIC "-//W3C//DTD SVG 1.1//EN"
 "http://www.w3.org/Graphics/SVG/1.1/DTD/svg11.dtd">
<!-- Generated by graphviz version 14.1.2 (0)
 -->
<!-- Title: TopOutlier4 Pages: 1 -->
<svg width="1034pt" height="942pt"
 viewBox="0.00 0.00 1034.00 942.00" xmlns="http://www.w3.org/2000/svg" xmlns:xlink="http://www.w3.org/1999/xlink">
<g id="graph0" class="graph" transform="scale(1 1) rotate(0) translate(57.6 934.8)">
<title>TopOutlier4</title>
<polygon fill="white" stroke="none" points="-57.6,7.2 -57.6,-934.8 975.94,-934.8 975.94,7.2 -57.6,7.2"/>
<text xml:space="preserve" text-anchor="middle" x="459.17" y="-911" font-family="Helvetica,Arial,sans-serif" font-size="14.00">Top Rank #4 Java Type Outlier</text>
<text xml:space="preserve" text-anchor="middle" x="459.17" y="-894.2" font-family="Helvetica,Arial,sans-serif" font-size="14.00">org.axonframework.messaging.eventhandling.processing.streaming.segmenting.TrackerStatus</text>
<text xml:space="preserve" text-anchor="middle" x="459.17" y="-861.4" font-family="Helvetica,Arial,sans-serif" font-size="14.00">dark nodes: incoming dependencies (limited max. 40)</text>
<text xml:space="preserve" text-anchor="middle" x="459.17" y="-844.6" font-family="Helvetica,Arial,sans-serif" font-size="14.00">bright nodes: outgoing dependencies (limited max. 40)</text>
<text xml:space="preserve" text-anchor="middle" x="459.17" y="-827.8" font-family="Helvetica,Arial,sans-serif" font-size="14.00">node value: cluster probability</text>
<text xml:space="preserve" text-anchor="middle" x="459.17" y="-811" font-family="Helvetica,Arial,sans-serif" font-size="14.00">large circle: &lt; 25% percentile of cluster probability</text>
<text xml:space="preserve" text-anchor="middle" x="459.17" y="-794.2" font-family="Helvetica,Arial,sans-serif" font-size="14.00">thick outline: &gt; 80% percentile of distance to cluster center</text>
<!-- central&#45;&gt;ReplayToken_11559 -->
<g id="edge8" class="edge">
<title>central&#45;&gt;ReplayToken_11559</title>
<path fill="none" stroke="#66c2a4" stroke-width="0.6" d="M344.4,-435.9C269.96,-406 155.69,-360.11 92.6,-334.77"/>
<polygon fill="#66c2a4" stroke="#66c2a4" stroke-width="0.6" points="93.22,-333.51 88.99,-333.32 92.18,-336.11 93.22,-333.51"/>
<text xml:space="preserve" text-anchor="middle" x="212.17" y="-384.8" font-family="Times,serif" font-size="4.00">11</text>
</g>
<!-- central&#45;&gt;MergedTrackingToken_14636 -->
<g id="edge9" class="edge">
<title>central&#45;&gt;MergedTrackingToken_14636</title>
<path fill="none" stroke="#66c2a4" stroke-width="0.5" d="M339.83,-476.3C280.72,-485.32 199.47,-497.72 142.14,-506.46"/>
<polygon fill="#66c2a4" stroke="#66c2a4" stroke-width="0.5" points="142.2,-505.04 138.45,-507.03 142.62,-507.81 142.2,-505.04"/>
<text xml:space="preserve" text-anchor="middle" x="237.68" y="-492.93" font-family="Times,serif" font-size="4.00">9</text>
</g>
<!-- central&#45;&gt;TrackingToken_11558 -->
<g id="edge10" class="edge">
<title>central&#45;&gt;TrackingToken_11558</title>
<path fill="none" stroke="#66c2a4" stroke-width="0.5" d="M435.71,-389.92C436.01,-388.8 436.3,-387.68 436.59,-386.58"/>
<polygon fill="#66c2a4" stroke="#66c2a4" stroke-width="0.5" points="437.84,-387.33 437.51,-383.11 435.13,-386.62 437.84,-387.33"/>
<text xml:space="preserve" text-anchor="middle" x="435.54" y="-387.99" font-family="Times,serif" font-size="4.00">9</text>
</g>
<!-- central&#45;&gt;Segment_12543 -->
<g id="edge11" class="edge">
<title>central&#45;&gt;Segment_12543</title>
<path fill="none" stroke="#66c2a4" stroke-width="0.5" d="M490.3,-443.32C528.79,-432.26 574.77,-419.04 609.02,-409.19"/>
<polygon fill="#66c2a4" stroke="#66c2a4" stroke-width="0.5" points="609.38,-410.55 612.84,-408.1 608.61,-407.86 609.38,-410.55"/>
<text xml:space="preserve" text-anchor="middle" x="550.73" y="-426.86" font-family="Times,serif" font-size="4.00">6</text>
</g>
<!-- central&#45;&gt;WrappedToken_12561 -->
<g id="edge12" class="edge">
<title>central&#45;&gt;WrappedToken_12561</title>
<path fill="none" stroke="#66c2a4" stroke-width="0.4" d="M370.96,-401.66C332.31,-347.64 278.16,-271.94 247.47,-229.03"/>
<polygon fill="#66c2a4" stroke="#66c2a4" stroke-width="0.4" points="248.75,-228.43 245.29,-225.99 246.48,-230.06 248.75,-228.43"/>
<text xml:space="preserve" text-anchor="middle" x="305.2" y="-312.33" font-family="Times,serif" font-size="4.00">3</text>
</g>
<!-- central&#45;&gt;EventTrackerStatus_14612 -->
<g id="edge13" class="edge">
<title>central&#45;&gt;EventTrackerStatus_14612</title>
<path fill="none" stroke="#66c2a4" stroke-width="0.4" d="M446.14,-536.02C468.5,-589.01 498.08,-659.1 515.82,-701.13"/>
<polygon fill="#66c2a4" stroke="#66c2a4" stroke-width="0.4" points="514.52,-701.66 517.37,-704.8 517.1,-700.57 514.52,-701.66"/>
<text xml:space="preserve" text-anchor="middle" x="481.75" y="-623.97" font-family="Times,serif" font-size="4.00">1</text>
</g>
<!-- SplitTask_15268&#45;&gt;central -->
<g id="edge1" class="edge">
<title>SplitTask_15268&#45;&gt;central</title>
<path fill="none" stroke="#238b45" stroke-width="0.6" d="M420.57,-141.06C408.74,-187 389.75,-273.39 391.6,-348.21 391.9,-360.35 393.35,-373.05 395.41,-385.42"/>
<polygon fill="#238b45" stroke="#238b45" stroke-width="0.6" points="393.98,-385.36 396.04,-389.07 396.74,-384.89 393.98,-385.36"/>
<text xml:space="preserve" text-anchor="middle" x="394.55" y="-265.33" font-family="Times,serif" font-size="4.00">16</text>
</g>
<!-- SplitTask_15268&#45;&gt;WorkPackage_14629 -->
<g id="edge32" class="edge">
<title>SplitTask_15268&#45;&gt;WorkPackage_14629</title>
<path fill="none" stroke="#ccece6" stroke-width="0.3" d="M456.9,-135.34C484.94,-163.11 528.52,-206.25 557.71,-235.16"/>
<polygon fill="#ccece6" stroke="#ccece6" stroke-width="0.3" points="556.69,-236.12 560.52,-237.94 558.66,-234.13 556.69,-236.12"/>
<text xml:space="preserve" text-anchor="middle" x="507.99" y="-188.12" font-family="Times,serif" font-size="4.00">7</text>
</g>
<!-- SplitTask_15268&#45;&gt;TrackingToken_11558 -->
<g id="edge51" class="edge">
<title>SplitTask_15268&#45;&gt;TrackingToken_11558</title>
<path fill="none" stroke="#ccece6" stroke-width="0.3" d="M432,-141.69C435.12,-185.58 440.61,-262.62 443.92,-309.17"/>
<polygon fill="#ccece6" stroke="#ccece6" stroke-width="0.3" points="442.52,-309.24 444.2,-313.13 445.31,-309.04 442.52,-309.24"/>
<text xml:space="preserve" text-anchor="middle" x="437.12" y="-228.86" font-family="Times,serif" font-size="4.00">1</text>
</g>
<!-- SplitTask_15268&#45;&gt;Segment_12543 -->
<g id="edge29" class="edge">
<title>SplitTask_15268&#45;&gt;Segment_12543</title>
<path fill="none" stroke="#ccece6" stroke-width="0.3" d="M446.87,-139.14C468.68,-176.94 508.51,-242.18 550.49,-292.23 572.89,-318.94 601.72,-345.87 624.05,-365.43"/>
<polygon fill="#ccece6" stroke="#ccece6" stroke-width="0.3" points="623.02,-366.39 626.95,-367.96 624.86,-364.28 623.02,-366.39"/>
<text xml:space="preserve" text-anchor="middle" x="524.49" y="-263" font-family="Times,serif" font-size="4.00">11</text>
</g>
<!-- PooledStreamingEventProcessor_14602&#45;&gt;central -->
<g id="edge2" class="edge">
<title>PooledStreamingEventProcessor_14602&#45;&gt;central</title>
<path fill="none" stroke="#238b45" stroke-width="0.6" d="M738.23,-515.92C667.03,-504.6 566.65,-488.63 496.92,-477.54"/>
<polygon fill="#238b45" stroke="#238b45" stroke-width="0.6" points="497.44,-476.2 493.27,-476.96 497,-478.97 497.44,-476.2"/>
<text xml:space="preserve" text-anchor="middle" x="613.52" y="-497.6" font-family="Times,serif" font-size="4.00">14</text>
</g>
<!-- PooledStreamingEventProcessor_14602&#45;&gt;WorkPackage_14629 -->
<g id="edge43" class="edge">
<title>PooledStreamingEventProcessor_14602&#45;&gt;WorkPackage_14629</title>
<path fill="none" stroke="#ccece6" stroke-width="0.3" d="M801.83,-497.48C777.66,-463.71 737.39,-409.67 698.11,-366.85 674.03,-340.61 644.2,-313.35 621.72,-293.72"/>
<polygon fill="#ccece6" stroke="#ccece6" stroke-width="0.3" points="622.73,-292.75 618.8,-291.18 620.89,-294.86 622.73,-292.75"/>
<text xml:space="preserve" text-anchor="middle" x="697.1" y="-368.05" font-family="Times,serif" font-size="4.00">2</text>
</g>
<!-- PooledStreamingEventProcessor_14602&#45;&gt;Coordinator$Builder_14633 -->
<g id="edge22" class="edge">
<title>PooledStreamingEventProcessor_14602&#45;&gt;Coordinator$Builder_14633</title>
<path fill="none" stroke="#ccece6" stroke-width="0.3" d="M826.92,-496.4C829.91,-458.32 834.79,-395.98 837.95,-355.73"/>
<polygon fill="#ccece6" stroke="#ccece6" stroke-width="0.3" points="839.33,-355.97 838.25,-351.87 836.54,-355.75 839.33,-355.97"/>
<text xml:space="preserve" text-anchor="middle" x="830.61" y="-425.1" font-family="Times,serif" font-size="4.00">18</text>
</g>
<!-- PooledStreamingEventProcessor_14602&#45;&gt;WorkPackage$Builder_15273 -->
<g id="edge27" class="edge">
<title>PooledStreamingEventProcessor_14602&#45;&gt;WorkPackage$Builder_15273</title>
<path fill="none" stroke="#ccece6" stroke-width="0.3" d="M780.4,-559.1C757.34,-574.58 729.24,-593.44 706.56,-608.66"/>
<polygon fill="#ccece6" stroke="#ccece6" stroke-width="0.3" points="705.88,-607.42 703.34,-610.82 707.44,-609.75 705.88,-607.42"/>
<text xml:space="preserve" text-anchor="middle" x="739.55" y="-586.38" font-family="Times,serif" font-size="4.00">15</text>
</g>
<!-- PooledStreamingEventProcessor_14602&#45;&gt;Coordinator_14627 -->
<g id="edge30" class="edge">
<title>PooledStreamingEventProcessor_14602&#45;&gt;Coordinator_14627</title>
<path fill="none" stroke="#ccece6" stroke-width="0.3" d="M815.44,-496.52C796.95,-427.59 754.45,-269.12 735.13,-197.09"/>
<polygon fill="#ccece6" stroke="#ccece6" stroke-width="0.3" points="736.51,-196.83 734.12,-193.33 733.8,-197.55 736.51,-196.83"/>
<text xml:space="preserve" text-anchor="middle" x="772.7" y="-345.81" font-family="Times,serif" font-size="4.00">10</text>
</g>
<!-- PooledStreamingEventProcessor_14602&#45;&gt;TrackingToken_11558 -->
<g id="edge33" class="edge">
<title>PooledStreamingEventProcessor_14602&#45;&gt;TrackingToken_11558</title>
<path fill="none" stroke="#ccece6" stroke-width="0.3" d="M768.6,-502.85C693.12,-466.59 559.9,-402.59 490.89,-369.44"/>
<polygon fill="#ccece6" stroke="#ccece6" stroke-width="0.3" points="491.87,-368.36 487.66,-367.89 490.66,-370.88 491.87,-368.36"/>
<text xml:space="preserve" text-anchor="middle" x="626.17" y="-436.11" font-family="Times,serif" font-size="4.00">6</text>
</g>
<!-- PooledStreamingEventProcessor_14602&#45;&gt;Segment_12543 -->
<g id="edge44" class="edge">
<title>PooledStreamingEventProcessor_14602&#45;&gt;Segment_12543</title>
<path fill="none" stroke="#ccece6" stroke-width="0.3" d="M786.84,-499.02C759.13,-476.4 721.64,-445.8 694.46,-423.61"/>
<polygon fill="#ccece6" stroke="#ccece6" stroke-width="0.3" points="695.53,-422.68 691.55,-421.23 693.76,-424.85 695.53,-422.68"/>
<text xml:space="preserve" text-anchor="middle" x="737.93" y="-461.11" font-family="Times,serif" font-size="4.00">2</text>
</g>
<!-- PooledStreamingEventProcessor_14602&#45;&gt;EventTrackerStatus_14612 -->
<g id="edge50" class="edge">
<title>PooledStreamingEventProcessor_14602&#45;&gt;EventTrackerStatus_14612</title>
<path fill="none" stroke="#ccece6" stroke-width="0.3" d="M803.3,-562C782.47,-591.93 748.1,-635.93 709.13,-664.17 672.32,-690.84 624.39,-709.91 587.55,-721.91"/>
<polygon fill="#ccece6" stroke="#ccece6" stroke-width="0.3" points="587.37,-720.49 584,-723.06 588.23,-723.16 587.37,-720.49"/>
<text xml:space="preserve" text-anchor="middle" x="707.7" y="-665.68" font-family="Times,serif" font-size="4.00">1</text>
</g>
<!-- WorkPackage_14629&#45;&gt;central -->
<g id="edge3" class="edge">
<title>WorkPackage_14629&#45;&gt;central</title>
<path fill="none" stroke="#238b45" stroke-width="0.6" d="M563.61,-293.99C539.19,-322.23 501.01,-366.39 469.61,-402.71"/>
<polygon fill="#238b45" stroke="#238b45" stroke-width="0.6" points="468.74,-401.57 467.18,-405.51 470.86,-403.4 468.74,-401.57"/>
<text xml:space="preserve" text-anchor="middle" x="512.95" y="-351.47" font-family="Times,serif" font-size="4.00">13</text>
</g>
<!-- WorkPackage_14629&#45;&gt;WorkPackage$Builder_15273 -->
<g id="edge21" class="edge">
<title>WorkPackage_14629&#45;&gt;WorkPackage$Builder_15273</title>
<path fill="none" stroke="#ccece6" stroke-width="0.3" d="M591.17,-298.58C593.73,-324.82 598,-362.32 604.06,-394.79 617.65,-467.67 640.41,-551.25 653.97,-598.56"/>
<polygon fill="#ccece6" stroke="#ccece6" stroke-width="0.3" points="652.6,-598.85 655.05,-602.3 655.29,-598.07 652.6,-598.85"/>
<text xml:space="preserve" text-anchor="middle" x="613.98" y="-453.25" font-family="Times,serif" font-size="4.00">19</text>
</g>
<!-- WorkPackage_14629&#45;&gt;TrackingToken_11558 -->
<g id="edge19" class="edge">
<title>WorkPackage_14629&#45;&gt;TrackingToken_11558</title>
<path fill="none" stroke="#ccece6" stroke-width="0.3" d="M551.83,-286.76C532.39,-298.12 508.39,-312.14 488.24,-323.93"/>
<polygon fill="#ccece6" stroke="#ccece6" stroke-width="0.3" points="487.66,-322.64 484.91,-325.87 489.07,-325.06 487.66,-322.64"/>
<text xml:space="preserve" text-anchor="middle" x="516.25" y="-307.58" font-family="Times,serif" font-size="4.00">23</text>
</g>
<!-- WorkPackage_14629&#45;&gt;Segment_12543 -->
<g id="edge24" class="edge">
<title>WorkPackage_14629&#45;&gt;Segment_12543</title>
<path fill="none" stroke="#ccece6" stroke-width="0.3" d="M605.27,-296.42C615.48,-315.06 628.52,-338.88 639.22,-358.41"/>
<polygon fill="#ccece6" stroke="#ccece6" stroke-width="0.3" points="637.96,-359.02 641.11,-361.86 640.42,-357.67 637.96,-359.02"/>
<text xml:space="preserve" text-anchor="middle" x="621.44" y="-330.8" font-family="Times,serif" font-size="4.00">17</text>
</g>
<!-- WorkPackage_14629&#45;&gt;WrappedToken_12561 -->
<g id="edge52" class="edge">
<title>WorkPackage_14629&#45;&gt;WrappedToken_12561</title>
<path fill="none" stroke="#ccece6" stroke-width="0.3" d="M542.5,-256.71C473.88,-243.62 344.89,-219.02 273.86,-205.48"/>
<polygon fill="#ccece6" stroke="#ccece6" stroke-width="0.3" points="274.32,-204.14 270.13,-204.77 273.79,-206.89 274.32,-204.14"/>
<text xml:space="preserve" text-anchor="middle" x="405.17" y="-231.91" font-family="Times,serif" font-size="4.00">1</text>
</g>
<!-- Coordinator$CoordinationTask_14638&#45;&gt;central -->
<g id="edge4" class="edge">
<title>Coordinator$CoordinationTask_14638&#45;&gt;central</title>
<path fill="none" stroke="#238b45" stroke-width="0.5" d="M532.65,-68.07C534.23,-126.99 533.01,-250.2 501.79,-348.21 495.45,-368.11 484.17,-387.38 471.83,-404.33"/>
<polygon fill="#238b45" stroke="#238b45" stroke-width="0.5" points="470.72,-403.47 469.47,-407.52 472.97,-405.14 470.72,-403.47"/>
<text xml:space="preserve" text-anchor="middle" x="523.54" y="-242.43" font-family="Times,serif" font-size="4.00">5</text>
</g>
<!-- Coordinator$CoordinationTask_14638&#45;&gt;WorkPackage_14629 -->
<g id="edge17" class="edge">
<title>Coordinator$CoordinationTask_14638&#45;&gt;WorkPackage_14629</title>
<path fill="none" stroke="#ccece6" stroke-width="0.3" d="M539.56,-67.81C550.15,-110.76 568.25,-184.17 579.16,-228.41"/>
<polygon fill="#ccece6" stroke="#ccece6" stroke-width="0.3" points="577.77,-228.61 580.09,-232.16 580.49,-227.94 577.77,-228.61"/>
<text xml:space="preserve" text-anchor="middle" x="557.83" y="-151.23" font-family="Times,serif" font-size="4.00">35</text>
</g>
<!-- Coordinator$CoordinationTask_14638&#45;&gt;Coordinator_14627 -->
<g id="edge14" class="edge">
<title>Coordinator$CoordinationTask_14638&#45;&gt;Coordinator_14627</title>
<path fill="none" stroke="#ccece6" stroke-width="0.3" d="M572.29,-60.46C606.12,-82.53 653.68,-113.56 686.76,-135.14"/>
<polygon fill="#ccece6" stroke="#ccece6" stroke-width="0.3" points="685.82,-136.2 689.93,-137.21 687.35,-133.86 685.82,-136.2"/>
<text xml:space="preserve" text-anchor="middle" x="628.23" y="-100.12" font-family="Times,serif" font-size="4.00">164</text>
</g>
<!-- Coordinator$CoordinationTask_14638&#45;&gt;TrackingToken_11558 -->
<g id="edge26" class="edge">
<title>Coordinator$CoordinationTask_14638&#45;&gt;TrackingToken_11558</title>
<path fill="none" stroke="#ccece6" stroke-width="0.3" d="M522.01,-67.57C506.11,-126.8 473.44,-248.57 456.84,-310.4"/>
<polygon fill="#ccece6" stroke="#ccece6" stroke-width="0.3" points="455.58,-309.72 455.89,-313.94 458.28,-310.44 455.58,-309.72"/>
<text xml:space="preserve" text-anchor="middle" x="486.97" y="-191.88" font-family="Times,serif" font-size="4.00">15</text>
</g>
<!-- Coordinator$CoordinationTask_14638&#45;&gt;Segment_12543 -->
<g id="edge23" class="edge">
<title>Coordinator$CoordinationTask_14638&#45;&gt;Segment_12543</title>
<path fill="none" stroke="#ccece6" stroke-width="0.3" d="M550.87,-66.45C576.22,-110.23 619.55,-190.86 641.76,-265.44 650.57,-295 654.92,-329.7 657.07,-355.71"/>
<polygon fill="#ccece6" stroke="#ccece6" stroke-width="0.3" points="655.68,-355.8 657.39,-359.68 658.47,-355.58 655.68,-355.8"/>
<text xml:space="preserve" text-anchor="middle" x="618.69" y="-207.61" font-family="Times,serif" font-size="4.00">17</text>
</g>
<!-- Coordinator$CoordinationTask_14638&#45;&gt;WrappedToken_12561 -->
<g id="edge47" class="edge">
<title>Coordinator$CoordinationTask_14638&#45;&gt;WrappedToken_12561</title>
<path fill="none" stroke="#ccece6" stroke-width="0.3" d="M473.47,-49.65C447.83,-57.74 417.66,-68.6 391.82,-81.55 342.81,-106.11 291.41,-142.98 258.56,-168.17"/>
<polygon fill="#ccece6" stroke="#ccece6" stroke-width="0.3" points="257.72,-167.05 255.4,-170.6 259.43,-169.27 257.72,-167.05"/>
<text xml:space="preserve" text-anchor="middle" x="357.09" y="-101.22" font-family="Times,serif" font-size="4.00">1</text>
</g>
<!-- Coordinator$Builder_14633&#45;&gt;central -->
<g id="edge5" class="edge">
<title>Coordinator$Builder_14633&#45;&gt;central</title>
<path fill="none" stroke="#238b45" stroke-width="0.4" d="M793.65,-325.89C756.81,-333.05 704.49,-343.8 659.15,-355.28 598.71,-370.59 534.56,-400.07 487.34,-424.58"/>
<polygon fill="#238b45" stroke="#238b45" stroke-width="0.4" points="486.83,-423.26 483.93,-426.36 488.13,-425.75 486.83,-423.26"/>
<text xml:space="preserve" text-anchor="middle" x="633.2" y="-363.5" font-family="Times,serif" font-size="4.00">2</text>
</g>
<!-- Coordinator$Builder_14633&#45;&gt;WorkPackage_14629 -->
<g id="edge42" class="edge">
<title>Coordinator$Builder_14633&#45;&gt;WorkPackage_14629</title>
<path fill="none" stroke="#ccece6" stroke-width="0.3" d="M793.75,-307.39C749.47,-298.35 683.49,-284.88 638.32,-275.66"/>
<polygon fill="#ccece6" stroke="#ccece6" stroke-width="0.3" points="638.66,-274.3 634.46,-274.87 638.1,-277.04 638.66,-274.3"/>
<text xml:space="preserve" text-anchor="middle" x="713.1" y="-292.33" font-family="Times,serif" font-size="4.00">2</text>
</g>
<!-- Coordinator$Builder_14633&#45;&gt;Coordinator_14627 -->
<g id="edge37" class="edge">
<title>Coordinator$Builder_14633&#45;&gt;Coordinator_14627</title>
<path fill="none" stroke="#ccece6" stroke-width="0.3" d="M818.39,-286.43C798.55,-259.54 769.74,-220.53 749.43,-193.01"/>
<polygon fill="#ccece6" stroke="#ccece6" stroke-width="0.3" points="750.77,-192.47 747.27,-190.08 748.52,-194.13 750.77,-192.47"/>
<text xml:space="preserve" text-anchor="middle" x="781.65" y="-239.22" font-family="Times,serif" font-size="4.00">3</text>
</g>
<!-- Coordinator$Builder_14633&#45;&gt;TrackingToken_11558 -->
<g id="edge35" class="edge">
<title>Coordinator$Builder_14633&#45;&gt;TrackingToken_11558</title>
<path fill="none" stroke="#ccece6" stroke-width="0.3" d="M792.24,-320.88C717.85,-326.76 576.55,-337.94 499.7,-344.01"/>
<polygon fill="#ccece6" stroke="#ccece6" stroke-width="0.3" points="499.97,-342.59 496.09,-344.3 500.19,-345.38 499.97,-342.59"/>
<text xml:space="preserve" text-anchor="middle" x="642.72" y="-333.83" font-family="Times,serif" font-size="4.00">4</text>
</g>
<!-- Coordinator$Builder_14633&#45;&gt;Segment_12543 -->
<g id="edge34" class="edge">
<title>Coordinator$Builder_14633&#45;&gt;Segment_12543</title>
<path fill="none" stroke="#ccece6" stroke-width="0.3" d="M799.27,-334.87C771.17,-346.88 734.1,-362.73 705.15,-375.11"/>
<polygon fill="#ccece6" stroke="#ccece6" stroke-width="0.3" points="704.85,-373.72 701.72,-376.58 705.95,-376.3 704.85,-373.72"/>
<text xml:space="preserve" text-anchor="middle" x="749.22" y="-357.04" font-family="Times,serif" font-size="4.00">5</text>
</g>
<!-- WorkPackage$Builder_15273&#45;&gt;central -->
<g id="edge6" class="edge">
<title>WorkPackage$Builder_15273&#45;&gt;central</title>
<path fill="none" stroke="#238b45" stroke-width="0.4" d="M627.84,-610.74C589.75,-584.47 529.76,-543.1 483.34,-511.09"/>
<polygon fill="#238b45" stroke="#238b45" stroke-width="0.4" points="484.32,-510.07 480.24,-508.95 482.73,-512.37 484.32,-510.07"/>
<text xml:space="preserve" text-anchor="middle" x="552.61" y="-560.75" font-family="Times,serif" font-size="4.00">2</text>
</g>
<!-- WorkPackage$Builder_15273&#45;&gt;WorkPackage_14629 -->
<g id="edge38" class="edge">
<title>WorkPackage$Builder_15273&#45;&gt;WorkPackage_14629</title>
<path fill="none" stroke="#ccece6" stroke-width="0.3" d="M655.17,-602.74C641.79,-556.3 618.06,-469.87 604.06,-394.79 598.33,-364.09 594.2,-328.9 591.6,-302.98"/>
<polygon fill="#ccece6" stroke="#ccece6" stroke-width="0.3" points="593,-302.88 591.21,-299.03 590.21,-303.15 593,-302.88"/>
<text xml:space="preserve" text-anchor="middle" x="614.97" y="-453.17" font-family="Times,serif" font-size="4.00">3</text>
</g>
<!-- WorkPackage$Builder_15273&#45;&gt;TrackingToken_11558 -->
<g id="edge45" class="edge">
<title>WorkPackage$Builder_15273&#45;&gt;TrackingToken_11558</title>
<path fill="none" stroke="#ccece6" stroke-width="0.3" d="M641.55,-605.34C600.23,-550.81 515.09,-438.46 472.36,-382.07"/>
<polygon fill="#ccece6" stroke="#ccece6" stroke-width="0.3" points="473.66,-381.47 470.13,-379.12 471.43,-383.16 473.66,-381.47"/>
<text xml:space="preserve" text-anchor="middle" x="554.62" y="-493.15" font-family="Times,serif" font-size="4.00">2</text>
</g>
<!-- WorkPackage$Builder_15273&#45;&gt;Segment_12543 -->
<g id="edge46" class="edge">
<title>WorkPackage$Builder_15273&#45;&gt;Segment_12543</title>
<path fill="none" stroke="#ccece6" stroke-width="0.3" d="M664.28,-602.09C663.18,-557.65 661.27,-480.45 660.12,-433.84"/>
<polygon fill="#ccece6" stroke="#ccece6" stroke-width="0.3" points="661.52,-433.85 660.02,-429.88 658.72,-433.92 661.52,-433.85"/>
<text xml:space="preserve" text-anchor="middle" x="661.14" y="-516.74" font-family="Times,serif" font-size="4.00">2</text>
</g>
<!-- Coordinator_14627&#45;&gt;central -->
<g id="edge7" class="edge">
<title>Coordinator_14627&#45;&gt;central</title>
<path fill="none" stroke="#238b45" stroke-width="0.4" d="M705.66,-190.43C686.89,-218.27 656.93,-260.05 626.1,-292.23 581.82,-338.47 525.46,-384.13 482.27,-416.84"/>
<polygon fill="#238b45" stroke="#238b45" stroke-width="0.4" points="481.49,-415.68 479.15,-419.21 483.18,-417.91 481.49,-415.68"/>
<text xml:space="preserve" text-anchor="middle" x="601.61" y="-316.89" font-family="Times,serif" font-size="4.00">1</text>
</g>
<!-- Coordinator_14627&#45;&gt;SplitTask_15268 -->
<g id="edge39" class="edge">
<title>Coordinator_14627&#45;&gt;SplitTask_15268</title>
<path fill="none" stroke="#ccece6" stroke-width="0.3" d="M679.06,-152.14C625.09,-142.66 536.09,-127.03 480.27,-117.23"/>
<polygon fill="#ccece6" stroke="#ccece6" stroke-width="0.3" points="480.61,-115.87 476.43,-116.55 480.12,-118.62 480.61,-115.87"/>
<text xml:space="preserve" text-anchor="middle" x="576.41" y="-135.49" font-family="Times,serif" font-size="4.00">2</text>
</g>
<!-- Coordinator_14627&#45;&gt;WorkPackage_14629 -->
<g id="edge40" class="edge">
<title>Coordinator_14627&#45;&gt;WorkPackage_14629</title>
<path fill="none" stroke="#ccece6" stroke-width="0.3" d="M693.14,-184.92C672.28,-200.94 645.07,-221.84 623.6,-238.33"/>
<polygon fill="#ccece6" stroke="#ccece6" stroke-width="0.3" points="622.88,-237.11 620.56,-240.66 624.59,-239.33 622.88,-237.11"/>
<text xml:space="preserve" text-anchor="middle" x="655.9" y="-213.96" font-family="Times,serif" font-size="4.00">2</text>
</g>
<!-- Coordinator_14627&#45;&gt;Coordinator$CoordinationTask_14638 -->
<g id="edge31" class="edge">
<title>Coordinator_14627&#45;&gt;Coordinator$CoordinationTask_14638</title>
<path fill="none" stroke="#ccece6" stroke-width="0.3" d="M690.54,-137.61C658.43,-116.66 610.51,-85.4 575.6,-62.62"/>
<polygon fill="#ccece6" stroke="#ccece6" stroke-width="0.3" points="576.76,-61.7 572.64,-60.69 575.23,-64.05 576.76,-61.7"/>
<text xml:space="preserve" text-anchor="middle" x="630.26" y="-100.13" font-family="Times,serif" font-size="4.00">8</text>
</g>
<!-- Coordinator_14627&#45;&gt;Coordinator$Builder_14633 -->
<g id="edge18" class="edge">
<title>Coordinator_14627&#45;&gt;Coordinator$Builder_14633</title>
<path fill="none" stroke="#ccece6" stroke-width="0.3" d="M747.02,-189.74C766.59,-216.25 795.33,-255.18 815.86,-283"/>
<polygon fill="#ccece6" stroke="#ccece6" stroke-width="0.3" points="814.55,-283.58 818.05,-285.97 816.8,-281.92 814.55,-283.58"/>
<text xml:space="preserve" text-anchor="middle" x="780.79" y="-239.4" font-family="Times,serif" font-size="4.00">23</text>
</g>
<!-- Coordinator_14627&#45;&gt;TrackingToken_11558 -->
<g id="edge36" class="edge">
<title>Coordinator_14627&#45;&gt;TrackingToken_11558</title>
<path fill="none" stroke="#ccece6" stroke-width="0.3" d="M682.2,-174.21C645.24,-187.4 591.58,-209.51 550.49,-238.66 520.55,-259.9 492.29,-290.7 472.84,-314.24"/>
<polygon fill="#ccece6" stroke="#ccece6" stroke-width="0.3" points="471.78,-313.33 470.33,-317.31 473.95,-315.1 471.78,-313.33"/>
<text xml:space="preserve" text-anchor="middle" x="549.47" y="-239.86" font-family="Times,serif" font-size="4.00">3</text>
</g>
<!-- Coordinator_14627&#45;&gt;Segment_12543 -->
<g id="edge41" class="edge">
<title>Coordinator_14627&#45;&gt;Segment_12543</title>
<path fill="none" stroke="#ccece6" stroke-width="0.3" d="M716.06,-192.87C703.94,-235.87 682.65,-311.41 669.83,-356.9"/>
<polygon fill="#ccece6" stroke="#ccece6" stroke-width="0.3" points="668.55,-356.27 668.81,-360.5 671.25,-357.03 668.55,-356.27"/>
<text xml:space="preserve" text-anchor="middle" x="691.32" y="-278.31" font-family="Times,serif" font-size="4.00">2</text>
</g>
<!-- ReplayToken_11559&#45;&gt;TrackingToken_11558 -->
<g id="edge15" class="edge">
<title>ReplayToken_11559&#45;&gt;TrackingToken_11558</title>
<path fill="none" stroke="#ccece6" stroke-width="0.3" d="M94.24,-320.16C169.35,-326.13 315.12,-337.73 393.61,-343.98"/>
<polygon fill="#ccece6" stroke="#ccece6" stroke-width="0.3" points="393.2,-345.35 397.3,-344.27 393.43,-342.56 393.2,-345.35"/>
<text xml:space="preserve" text-anchor="middle" x="243.92" y="-333.43" font-family="Times,serif" font-size="4.00">49</text>
</g>
<!-- ReplayToken_11559&#45;&gt;WrappedToken_12561 -->
<g id="edge20" class="edge">
<title>ReplayToken_11559&#45;&gt;WrappedToken_12561</title>
<path fill="none" stroke="#ccece6" stroke-width="0.3" d="M80.92,-293.16C111.16,-272.58 155.23,-242.59 186.41,-221.36"/>
<polygon fill="#ccece6" stroke="#ccece6" stroke-width="0.3" points="186.87,-222.74 189.39,-219.34 185.3,-220.43 186.87,-222.74"/>
<text xml:space="preserve" text-anchor="middle" x="133.5" y="-257.21" font-family="Times,serif" font-size="4.00">19</text>
</g>
<!-- MergedTrackingToken_14636&#45;&gt;TrackingToken_11558 -->
<g id="edge16" class="edge">
<title>MergedTrackingToken_14636&#45;&gt;TrackingToken_11558</title>
<path fill="none" stroke="#ccece6" stroke-width="0.3" d="M122.74,-494.46C195.98,-461.4 331.24,-400.33 401.57,-368.58"/>
<polygon fill="#ccece6" stroke="#ccece6" stroke-width="0.3" points="401.8,-370.01 404.87,-367.09 400.65,-367.46 401.8,-370.01"/>
<text xml:space="preserve" text-anchor="middle" x="261.85" y="-431.96" font-family="Times,serif" font-size="4.00">47</text>
</g>
<!-- MergedTrackingToken_14636&#45;&gt;WrappedToken_12561 -->
<g id="edge28" class="edge">
<title>MergedTrackingToken_14636&#45;&gt;WrappedToken_12561</title>
<path fill="none" stroke="#ccece6" stroke-width="0.3" d="M87.87,-484.8C116.41,-424.14 177.85,-293.55 207.34,-230.88"/>
<polygon fill="#ccece6" stroke="#ccece6" stroke-width="0.3" points="208.43,-231.85 208.87,-227.63 205.9,-230.65 208.43,-231.85"/>
<text xml:space="preserve" text-anchor="middle" x="146.57" y="-356.98" font-family="Times,serif" font-size="4.00">12</text>
</g>
<!-- WrappedToken_12561&#45;&gt;TrackingToken_11558 -->
<g id="edge25" class="edge">
<title>WrappedToken_12561&#45;&gt;TrackingToken_11558</title>
<path fill="none" stroke="#ccece6" stroke-width="0.3" d="M257.64,-219.06C298.04,-246.65 365.43,-292.69 407.9,-321.7"/>
<polygon fill="#ccece6" stroke="#ccece6" stroke-width="0.3" points="406.95,-322.75 411.04,-323.85 408.53,-320.44 406.95,-322.75"/>
<text xml:space="preserve" text-anchor="middle" x="332.54" y="-272.79" font-family="Times,serif" font-size="4.00">16</text>
</g>
<!-- EventTrackerStatus_14612&#45;&gt;TrackingToken_11558 -->
<g id="edge48" class="edge">
<title>EventTrackerStatus_14612&#45;&gt;TrackingToken_11558</title>
<path fill="none" stroke="#ccece6" stroke-width="0.3" d="M530.64,-704.29C529.07,-652.33 523.25,-549.17 501.65,-464.67 494.37,-436.21 480.09,-406.28 467.91,-383.89"/>
<polygon fill="#ccece6" stroke="#ccece6" stroke-width="0.3" points="469.19,-383.31 466.04,-380.48 466.73,-384.66 469.19,-383.31"/>
<text xml:space="preserve" text-anchor="middle" x="515.47" y="-540.56" font-family="Times,serif" font-size="4.00">1</text>
</g>
<!-- EventTrackerStatus_14612&#45;&gt;Segment_12543 -->
<g id="edge49" class="edge">
<title>EventTrackerStatus_14612&#45;&gt;Segment_12543</title>
<path fill="none" stroke="#ccece6" stroke-width="0.3" d="M543.36,-705.04C567.18,-641.21 619.88,-499.99 645.13,-432.34"/>
<polygon fill="#ccece6" stroke="#ccece6" stroke-width="0.3" points="646.36,-433.05 646.45,-428.81 643.74,-432.07 646.36,-433.05"/>
<text xml:space="preserve" text-anchor="middle" x="593.96" y="-567.99" font-family="Times,serif" font-size="4.00">1</text>
</g>
<!-- central -->
<g id="node1" class="node">
<title>central</title>
<ellipse fill="#66c2a4" stroke="#238b45" stroke-width="3" cx="416.03" cy="-464.67" rx="72" ry="72"/>
<ellipse fill="none" stroke="#238b45" stroke-width="3" cx="416.03" cy="-464.67" rx="76" ry="76"/>
<text xml:space="preserve" text-anchor="middle" x="416.03" y="-469.47" font-family="Times,serif" font-size="16.00">🧩 outlier #4</text>
<text xml:space="preserve" text-anchor="middle" x="416.03" y="-450.27" font-family="Times,serif" font-size="16.00">TrackerStatus</text>
</g>
<!-- SplitTask_15268 -->
<g id="node2" class="node">
<title>SplitTask_15268</title>
<ellipse fill="#ccece6" stroke="#41ae76" stroke-width="2" cx="429.63" cy="-108.33" rx="46.8" ry="32.4"/>
<text xml:space="preserve" text-anchor="middle" x="429.63" y="-111.93" font-family="Times,serif" font-size="12.00">SplitTask</text>
<text xml:space="preserve" text-anchor="middle" x="429.63" y="-97.53" font-family="Times,serif" font-size="12.00">(100.0%)</text>
</g>
<!-- PooledStreamingEventProcessor_14602 -->
<g id="node3" class="node">
<title>PooledStreamingEventProcessor_14602</title>
<ellipse fill="#ccece6" stroke="#41ae76" stroke-width="2" cx="824.32" cy="-529.62" rx="94.02" ry="32.4"/>
<text xml:space="preserve" text-anchor="middle" x="824.32" y="-533.22" font-family="Times,serif" font-size="12.00">PooledStreamingEventProcessor</text>
<text xml:space="preserve" text-anchor="middle" x="824.32" y="-518.82" font-family="Times,serif" font-size="12.00">(64.99%)</text>
</g>
<!-- WorkPackage_14629 -->
<g id="node4" class="node">
<title>WorkPackage_14629</title>
<ellipse fill="#ccece6" stroke="#41ae76" stroke-width="2" cx="588.29" cy="-265.44" rx="46.8" ry="32.4"/>
<text xml:space="preserve" text-anchor="middle" x="588.29" y="-269.04" font-family="Times,serif" font-size="12.00">WorkPackage</text>
<text xml:space="preserve" text-anchor="middle" x="588.29" y="-254.64" font-family="Times,serif" font-size="12.00">(66.28%)</text>
</g>
<!-- Coordinator$CoordinationTask_14638 -->
<g id="node5" class="node">
<title>Coordinator$CoordinationTask_14638</title>
<ellipse fill="#ccece6" stroke="#41ae76" stroke-width="2" cx="531.13" cy="-33.6" rx="64.33" ry="33.6"/>
<text xml:space="preserve" text-anchor="middle" x="531.13" y="-44.4" font-family="Times,serif" font-size="12.00">Coordinator$</text>
<text xml:space="preserve" text-anchor="middle" x="531.13" y="-30" font-family="Times,serif" font-size="12.00">CoordinationTask</text>
<text xml:space="preserve" text-anchor="middle" x="531.13" y="-15.6" font-family="Times,serif" font-size="12.00">(100.0%)</text>
</g>
<!-- Coordinator$Builder_14633 -->
<g id="node6" class="node">
<title>Coordinator$Builder_14633</title>
<ellipse fill="#ccece6" stroke="#41ae76" stroke-width="2" cx="840.98" cy="-317.03" rx="48.3" ry="33.6"/>
<text xml:space="preserve" text-anchor="middle" x="840.98" y="-327.83" font-family="Times,serif" font-size="12.00">Coordinator$</text>
<text xml:space="preserve" text-anchor="middle" x="840.98" y="-313.43" font-family="Times,serif" font-size="12.00">Builder</text>
<text xml:space="preserve" text-anchor="middle" x="840.98" y="-299.03" font-family="Times,serif" font-size="12.00">(100.0%)</text>
</g>
<!-- WorkPackage$Builder_15273 -->
<g id="node7" class="node">
<title>WorkPackage$Builder_15273</title>
<ellipse fill="#ccece6" stroke="#41ae76" stroke-width="2" cx="665.13" cy="-636.46" rx="54.89" ry="33.6"/>
<text xml:space="preserve" text-anchor="middle" x="665.13" y="-647.26" font-family="Times,serif" font-size="12.00">WorkPackage$</text>
<text xml:space="preserve" text-anchor="middle" x="665.13" y="-632.86" font-family="Times,serif" font-size="12.00">Builder</text>
<text xml:space="preserve" text-anchor="middle" x="665.13" y="-618.46" font-family="Times,serif" font-size="12.00">(100.0%)</text>
</g>
<!-- Coordinator_14627 -->
<g id="node8" class="node">
<title>Coordinator_14627</title>
<ellipse fill="#ccece6" stroke="#41ae76" stroke-width="2" cx="725.25" cy="-160.26" rx="46.8" ry="32.4"/>
<text xml:space="preserve" text-anchor="middle" x="725.25" y="-163.86" font-family="Times,serif" font-size="12.00">Coordinator</text>
<text xml:space="preserve" text-anchor="middle" x="725.25" y="-149.46" font-family="Times,serif" font-size="12.00">(87.8%)</text>
</g>
<!-- ReplayToken_11559 -->
<g id="node9" class="node">
<title>ReplayToken_11559</title>
<ellipse fill="#f7fcfd" stroke="#66c2a4" stroke-width="2" cx="46.8" cy="-316.38" rx="46.8" ry="32.4"/>
<text xml:space="preserve" text-anchor="middle" x="46.8" y="-319.98" font-family="Times,serif" font-size="12.00">ReplayToken</text>
<text xml:space="preserve" text-anchor="middle" x="46.8" y="-305.58" font-family="Times,serif" font-size="12.00">(100.0%)</text>
</g>
<!-- MergedTrackingToken_14636 -->
<g id="node10" class="node">
<title>MergedTrackingToken_14636</title>
<ellipse fill="#f7fcfd" stroke="#66c2a4" stroke-width="2" cx="72.69" cy="-517.06" rx="67.25" ry="32.4"/>
<text xml:space="preserve" text-anchor="middle" x="72.69" y="-520.66" font-family="Times,serif" font-size="12.00">MergedTrackingToken</text>
<text xml:space="preserve" text-anchor="middle" x="72.69" y="-506.26" font-family="Times,serif" font-size="12.00">(100.0%)</text>
</g>
<!-- TrackingToken_11558 -->
<g id="node11" class="node">
<title>TrackingToken_11558</title>
<ellipse fill="#f7fcfd" stroke="#66c2a4" stroke-width="5" cx="446.7" cy="-348.21" rx="46.8" ry="32.4"/>
<text xml:space="preserve" text-anchor="middle" x="446.7" y="-351.81" font-family="Times,serif" font-size="12.00">TrackingToken</text>
<text xml:space="preserve" text-anchor="middle" x="446.7" y="-337.41" font-family="Times,serif" font-size="12.00">(24.85%)</text>
</g>
<!-- Segment_12543 -->
<g id="node12" class="node">
<title>Segment_12543</title>
<ellipse fill="#f7fcfd" stroke="#66c2a4" stroke-width="5" cx="659.15" cy="-394.79" rx="46.8" ry="32.4"/>
<text xml:space="preserve" text-anchor="middle" x="659.15" y="-398.39" font-family="Times,serif" font-size="12.00">Segment</text>
<text xml:space="preserve" text-anchor="middle" x="659.15" y="-383.99" font-family="Times,serif" font-size="12.00">(30.04%)</text>
</g>
<!-- WrappedToken_12561 -->
<g id="node13" class="node">
<title>WrappedToken_12561</title>
<ellipse fill="#f7fcfd" stroke="#66c2a4" stroke-width="2" cx="223.78" cy="-195.93" rx="46.8" ry="32.4"/>
<text xml:space="preserve" text-anchor="middle" x="223.78" y="-199.53" font-family="Times,serif" font-size="12.00">WrappedToken</text>
<text xml:space="preserve" text-anchor="middle" x="223.78" y="-185.13" font-family="Times,serif" font-size="12.00">(38.51%)</text>
</g>
<!-- EventTrackerStatus_14612 -->
<g id="node14" class="node">
<title>EventTrackerStatus_14612</title>
<ellipse fill="#f7fcfd" stroke="#66c2a4" stroke-width="2" cx="531.21" cy="-737.6" rx="57.56" ry="32.4"/>
<text xml:space="preserve" text-anchor="middle" x="531.21" y="-741.2" font-family="Times,serif" font-size="12.00">EventTrackerStatus</text>
<text xml:space="preserve" text-anchor="middle" x="531.21" y="-726.8" font-family="Times,serif" font-size="12.00">(100.0%)</text>
</g>
</g>
</svg>

