<?xml version="1.0" encoding="UTF-8" standalone="no"?>
<!DOCTYPE svg PUBLIC "-//W3C//DTD SVG 1.1//EN"
 "http://www.w3.org/Graphics/SVG/1.1/DTD/svg11.dtd">
<!-- Generated by graphviz version 14.0.2 (0)
 -->
<!-- Title: TopOutlier2 Pages: 1 -->
<svg width="462pt" height="475pt"
 viewBox="0.00 0.00 462.00 475.00" xmlns="http://www.w3.org/2000/svg" xmlns:xlink="http://www.w3.org/1999/xlink">
<g id="graph0" class="graph" transform="scale(1 1) rotate(0) translate(65.57 467.35)">
<title>TopOutlier2</title>
<polygon fill="white" stroke="none" points="-65.57,7.2 -65.57,-467.35 396.57,-467.35 396.57,7.2 -65.57,7.2"/>
<text xml:space="preserve" text-anchor="middle" x="165.5" y="-443.55" font-family="Helvetica,Arial,sans-serif" font-size="14.00">Top Rank #2 Java Package Outlier</text>
<text xml:space="preserve" text-anchor="middle" x="165.5" y="-426.75" font-family="Helvetica,Arial,sans-serif" font-size="14.00">org.axonframework.eventhandling.replay</text>
<text xml:space="preserve" text-anchor="middle" x="165.5" y="-393.95" font-family="Helvetica,Arial,sans-serif" font-size="14.00">dark nodes: incoming dependencies (limited max. 40)</text>
<text xml:space="preserve" text-anchor="middle" x="165.5" y="-377.15" font-family="Helvetica,Arial,sans-serif" font-size="14.00">bright nodes: outgoing dependencies (limited max. 40)</text>
<text xml:space="preserve" text-anchor="middle" x="165.5" y="-360.35" font-family="Helvetica,Arial,sans-serif" font-size="14.00">node value: cluster probability</text>
<text xml:space="preserve" text-anchor="middle" x="165.5" y="-343.55" font-family="Helvetica,Arial,sans-serif" font-size="14.00">large circle: &lt; 25% percentile of cluster probability</text>
<text xml:space="preserve" text-anchor="middle" x="165.5" y="-326.75" font-family="Helvetica,Arial,sans-serif" font-size="14.00">thick outline: &gt; 80% percentile of distance to cluster center</text>
<!-- central&#45;&gt;eventhandling_34674 -->
<g id="edge4" class="edge">
<title>central&#45;&gt;eventhandling_34674</title>
<path fill="none" stroke="#66c2a4" stroke-width="0.5" d="M245.68,-151.35C250.22,-123.52 254.36,-93.16 256.63,-70.08"/>
<polygon fill="#66c2a4" stroke="#66c2a4" stroke-width="0.5" points="258,-70.43 256.98,-66.31 255.21,-70.16 258,-70.43"/>
<text xml:space="preserve" text-anchor="middle" x="251.09" y="-109.48" font-family="Times,serif" font-size="4.00">7</text>
</g>
<!-- central&#45;&gt;messaging_45014 -->
<g id="edge2" class="edge">
<title>central&#45;&gt;messaging_45014</title>
<path fill="none" stroke="#66c2a4" stroke-width="0.5" d="M253.55,-153.5C254.91,-149.65 256.24,-145.86 257.53,-142.22"/>
<polygon fill="#66c2a4" stroke="#66c2a4" stroke-width="0.5" points="258.76,-142.96 258.77,-138.72 256.11,-142.02 258.76,-142.96"/>
<text xml:space="preserve" text-anchor="middle" x="255.31" y="-146.87" font-family="Times,serif" font-size="4.00">9</text>
</g>
<!-- central&#45;&gt;annotation_46198 -->
<g id="edge3" class="edge">
<title>central&#45;&gt;annotation_46198</title>
<path fill="none" stroke="#66c2a4" stroke-width="0.5" d="M175.7,-169.63C162,-154.65 147.3,-138.59 133.88,-123.92"/>
<polygon fill="#66c2a4" stroke="#66c2a4" stroke-width="0.5" points="135.1,-123.18 131.37,-121.17 133.04,-125.07 135.1,-123.18"/>
<text xml:space="preserve" text-anchor="middle" x="152.36" y="-146.41" font-family="Times,serif" font-size="4.00">7</text>
</g>
<!-- central&#45;&gt;annotation_31520 -->
<g id="edge5" class="edge">
<title>central&#45;&gt;annotation_31520</title>
<path fill="none" stroke="#66c2a4" stroke-width="0.4" d="M150.56,-219.97C149.71,-219.9 148.86,-219.82 148,-219.75"/>
<polygon fill="#66c2a4" stroke="#66c2a4" stroke-width="0.4" points="148.46,-218.39 144.36,-219.44 148.22,-221.18 148.46,-218.39"/>
<text xml:space="preserve" text-anchor="middle" x="147.16" y="-220.97" font-family="Times,serif" font-size="4.00">1</text>
</g>
<!-- eventhandling_34674&#45;&gt;central -->
<g id="edge1" class="edge">
<title>eventhandling_34674&#45;&gt;central</title>
<path fill="none" stroke="#238b45" stroke-width="0.4" d="M246.59,-65C242.05,-86.94 237.1,-116.9 233.2,-145.07"/>
<polygon fill="#238b45" stroke="#238b45" stroke-width="0.4" points="231.82,-144.82 232.66,-148.97 234.59,-145.2 231.82,-144.82"/>
<text xml:space="preserve" text-anchor="middle" x="237.91" y="-108.44" font-family="Times,serif" font-size="4.00">1</text>
</g>
<!-- eventhandling_34674&#45;&gt;messaging_45014 -->
<g id="edge6" class="edge">
<title>eventhandling_34674&#45;&gt;messaging_45014</title>
<path fill="none" stroke="#ccece6" stroke-width="0.3" d="M256.12,-65.59C256.35,-66.99 256.59,-68.39 256.85,-69.79"/>
<polygon fill="#ccece6" stroke="#ccece6" stroke-width="0.3" points="255.44,-69.87 257.57,-73.53 258.19,-69.34 255.44,-69.87"/>
<text xml:space="preserve" text-anchor="middle" x="254.8" y="-65.93" font-family="Times,serif" font-size="4.00">48</text>
</g>
<!-- eventhandling_34674&#45;&gt;annotation_46198 -->
<g id="edge8" class="edge">
<title>eventhandling_34674&#45;&gt;annotation_46198</title>
<path fill="none" stroke="#ccece6" stroke-width="0.3" d="M209.84,-37.26C192.33,-40.72 172.1,-45.3 153.17,-50.05"/>
<polygon fill="#ccece6" stroke="#ccece6" stroke-width="0.3" points="152.87,-48.69 149.34,-51.02 153.56,-51.4 152.87,-48.69"/>
<text xml:space="preserve" text-anchor="middle" x="177.33" y="-44.99" font-family="Times,serif" font-size="4.00">27</text>
</g>
<!-- messaging_45014&#45;&gt;eventhandling_34674 -->
<g id="edge10" class="edge">
<title>messaging_45014&#45;&gt;eventhandling_34674</title>
<path fill="none" stroke="#ccece6" stroke-width="0.3" d="M271.04,-72.58C270.82,-71.18 270.57,-69.78 270.31,-68.38"/>
<polygon fill="#ccece6" stroke="#ccece6" stroke-width="0.3" points="271.72,-68.29 269.59,-64.63 268.98,-68.82 271.72,-68.29"/>
<text xml:space="preserve" text-anchor="middle" x="269.36" y="-69.84" font-family="Times,serif" font-size="4.00">4</text>
</g>
<!-- annotation_46198&#45;&gt;eventhandling_34674 -->
<g id="edge11" class="edge">
<title>annotation_46198&#45;&gt;eventhandling_34674</title>
<path fill="none" stroke="#ccece6" stroke-width="0.3" d="M151.64,-63.96C171.37,-59.68 192.64,-54.51 210.86,-49.53"/>
<polygon fill="#ccece6" stroke="#ccece6" stroke-width="0.3" points="211.01,-50.94 214.5,-48.53 210.27,-48.24 211.01,-50.94"/>
<text xml:space="preserve" text-anchor="middle" x="182.23" y="-57.86" font-family="Times,serif" font-size="4.00">2</text>
</g>
<!-- annotation_46198&#45;&gt;messaging_45014 -->
<g id="edge7" class="edge">
<title>annotation_46198&#45;&gt;messaging_45014</title>
<path fill="none" stroke="#ccece6" stroke-width="0.3" d="M151.57,-84.24C174.02,-88.31 198.84,-92.8 219.96,-96.63"/>
<polygon fill="#ccece6" stroke="#ccece6" stroke-width="0.3" points="219.51,-97.97 223.69,-97.3 220,-95.21 219.51,-97.97"/>
<text xml:space="preserve" text-anchor="middle" x="185.9" y="-92.02" font-family="Times,serif" font-size="4.00">38</text>
</g>
<!-- annotation_46198&#45;&gt;annotation_31520 -->
<g id="edge9" class="edge">
<title>annotation_46198&#45;&gt;annotation_31520</title>
<path fill="none" stroke="#ccece6" stroke-width="0.3" d="M83.05,-137.8C82.93,-139.86 82.81,-141.93 82.69,-144"/>
<polygon fill="#ccece6" stroke="#ccece6" stroke-width="0.3" points="81.3,-143.71 82.47,-147.78 84.1,-143.87 81.3,-143.71"/>
<text xml:space="preserve" text-anchor="middle" x="80.73" y="-144.42" font-family="Times,serif" font-size="4.00">12</text>
</g>
<!-- central -->
<g id="node1" class="node">
<title>central</title>
<ellipse fill="#66c2a4" stroke="#238b45" stroke-width="3" cx="227.76" cy="-226.55" rx="72" ry="72"/>
<ellipse fill="none" stroke="#238b45" stroke-width="3" cx="227.76" cy="-226.55" rx="76" ry="76"/>
<text xml:space="preserve" text-anchor="middle" x="227.76" y="-231.35" font-family="Times,serif" font-size="16.00">🧩 outlier #2</text>
<text xml:space="preserve" text-anchor="middle" x="227.76" y="-212.15" font-family="Times,serif" font-size="16.00">replay</text>
</g>
<!-- eventhandling_34674 -->
<g id="node2" class="node">
<title>eventhandling_34674</title>
<ellipse fill="#f7fcfd" stroke="#66c2a4" stroke-width="2" cx="256.76" cy="-32.4" rx="46.8" ry="32.4"/>
<text xml:space="preserve" text-anchor="middle" x="256.76" y="-36" font-family="Times,serif" font-size="12.00">eventhandling</text>
<text xml:space="preserve" text-anchor="middle" x="256.76" y="-21.6" font-family="Times,serif" font-size="12.00">(96.18%)</text>
</g>
<!-- messaging_45014 -->
<g id="node3" class="node">
<title>messaging_45014</title>
<ellipse fill="#f7fcfd" stroke="#66c2a4" stroke-width="2" cx="270.4" cy="-105.77" rx="46.8" ry="32.4"/>
<text xml:space="preserve" text-anchor="middle" x="270.4" y="-109.37" font-family="Times,serif" font-size="12.00">messaging</text>
<text xml:space="preserve" text-anchor="middle" x="270.4" y="-94.97" font-family="Times,serif" font-size="12.00">(100.0%)</text>
</g>
<!-- annotation_46198 -->
<g id="node4" class="node">
<title>annotation_46198</title>
<ellipse fill="#f7fcfd" stroke="#66c2a4" stroke-width="2" cx="86.87" cy="-72.52" rx="64.8" ry="64.8"/>
<text xml:space="preserve" text-anchor="middle" x="86.87" y="-76.12" font-family="Times,serif" font-size="12.00">annotation</text>
<text xml:space="preserve" text-anchor="middle" x="86.87" y="-61.72" font-family="Times,serif" font-size="12.00">(66.23%)</text>
</g>
<!-- annotation_31520 -->
<g id="node5" class="node">
<title>annotation_31520</title>
<ellipse fill="#f7fcfd" stroke="#66c2a4" stroke-width="2" cx="78.6" cy="-213.84" rx="64.8" ry="64.8"/>
<text xml:space="preserve" text-anchor="middle" x="78.6" y="-217.44" font-family="Times,serif" font-size="12.00">annotation</text>
<text xml:space="preserve" text-anchor="middle" x="78.6" y="-203.04" font-family="Times,serif" font-size="12.00">(74.99%)</text>
</g>
</g>
</svg>

