<?xml version="1.0" encoding="UTF-8" standalone="no"?>
<!DOCTYPE svg PUBLIC "-//W3C//DTD SVG 1.1//EN"
 "http://www.w3.org/Graphics/SVG/1.1/DTD/svg11.dtd">
<!-- Generated by graphviz version 12.2.1 (0)
 -->
<!-- Title: JavaArtifactLongestPaths Pages: 1 -->
<svg width="1028pt" height="755pt"
 viewBox="0.00 0.00 1028.30 754.65" xmlns="http://www.w3.org/2000/svg" xmlns:xlink="http://www.w3.org/1999/xlink">
<g id="graph0" class="graph" transform="scale(1 1) rotate(0) translate(4 750.65)">
<title>JavaArtifactLongestPaths</title>
<polygon fill="white" stroke="none" points="-4,4 -4,-750.65 1024.3,-750.65 1024.3,4 -4,4"/>
<!-- axon&#45;eventsourcing&#45;4.10.3\n(level 4/6) -->
<g id="node1" class="node">
<title>axon&#45;eventsourcing&#45;4.10.3\n(level 4/6)</title>
<ellipse fill="#98dafe" stroke="#1178b2" cx="254" cy="-243.08" rx="117.43" ry="29.42"/>
<text text-anchor="middle" x="254" y="-247.28" font-family="Helvetica,Arial,sans-serif" font-size="14.00">axon&#45;eventsourcing&#45;4.10.3</text>
<text text-anchor="middle" x="254" y="-230.48" font-family="Helvetica,Arial,sans-serif" font-size="14.00">(level 4/6)</text>
</g>
<!-- axon&#45;messaging&#45;4.10.3\n(level 6/6) -->
<g id="node2" class="node">
<title>axon&#45;messaging&#45;4.10.3\n(level 6/6)</title>
<ellipse fill="#98dafe" stroke="#1178b2" cx="496" cy="-29.42" rx="103.69" ry="29.42"/>
<text text-anchor="middle" x="496" y="-33.62" font-family="Helvetica,Arial,sans-serif" font-size="14.00">axon&#45;messaging&#45;4.10.3</text>
<text text-anchor="middle" x="496" y="-16.82" font-family="Helvetica,Arial,sans-serif" font-size="14.00">(level 6/6)</text>
</g>
<!-- axon&#45;eventsourcing&#45;4.10.3\n(level 4/6)&#45;&gt;axon&#45;messaging&#45;4.10.3\n(level 6/6) -->
<g id="edge1" class="edge">
<title>axon&#45;eventsourcing&#45;4.10.3\n(level 4/6)&#45;&gt;axon&#45;messaging&#45;4.10.3\n(level 6/6)</title>
<path fill="none" stroke="#1178b2" stroke-width="5.3" d="M249.96,-213.3C247.42,-183.32 248.4,-136.64 273,-106.83 300.43,-73.6 343.02,-54.78 383.66,-44.14"/>
<polygon fill="#1178b2" stroke="#1178b2" stroke-width="5.3" points="384.62,-48.67 393.27,-41.84 382.47,-39.65 384.62,-48.67"/>
<text text-anchor="middle" x="280.5" y="-133.25" font-family="Helvetica,Arial,sans-serif" font-size="10.00">650</text>
</g>
<!-- axon&#45;modelling&#45;4.10.3\n(level 5/6) -->
<g id="node3" class="node">
<title>axon&#45;modelling&#45;4.10.3\n(level 5/6)</title>
<ellipse fill="#98dafe" stroke="#1178b2" cx="399" cy="-136.25" rx="102.04" ry="29.42"/>
<text text-anchor="middle" x="399" y="-140.45" font-family="Helvetica,Arial,sans-serif" font-size="14.00">axon&#45;modelling&#45;4.10.3</text>
<text text-anchor="middle" x="399" y="-123.65" font-family="Helvetica,Arial,sans-serif" font-size="14.00">(level 5/6)</text>
</g>
<!-- axon&#45;eventsourcing&#45;4.10.3\n(level 4/6)&#45;&gt;axon&#45;modelling&#45;4.10.3\n(level 5/6) -->
<g id="edge2" class="edge">
<title>axon&#45;eventsourcing&#45;4.10.3\n(level 4/6)&#45;&gt;axon&#45;modelling&#45;4.10.3\n(level 5/6)</title>
<path fill="none" stroke="red" stroke-width="1.52" d="M291.72,-214.81C310.15,-201.48 332.52,-185.31 352.05,-171.19"/>
<polygon fill="red" stroke="red" stroke-width="1.52" points="354.05,-174.06 360.11,-165.37 349.95,-168.39 354.05,-174.06"/>
<text text-anchor="middle" x="335.85" y="-186.66" font-family="Helvetica,Arial,sans-serif" font-size="10.00">80</text>
</g>
<!-- axon&#45;modelling&#45;4.10.3\n(level 5/6)&#45;&gt;axon&#45;messaging&#45;4.10.3\n(level 6/6) -->
<g id="edge19" class="edge">
<title>axon&#45;modelling&#45;4.10.3\n(level 5/6)&#45;&gt;axon&#45;messaging&#45;4.10.3\n(level 6/6)</title>
<path fill="none" stroke="red" stroke-width="5.92" d="M424.74,-107.43C435.26,-96.06 447.64,-82.68 459.09,-70.3"/>
<polygon fill="red" stroke="red" stroke-width="5.92" points="462.78,-73.94 465.77,-63.09 455.18,-66.91 462.78,-73.94"/>
<text text-anchor="middle" x="457.91" y="-79.83" font-family="Helvetica,Arial,sans-serif" font-size="10.00">744</text>
</g>
<!-- axon&#45;spring&#45;boot&#45;autoconfigure&#45;4.10.3\n(level 0/6) -->
<g id="node4" class="node">
<title>axon&#45;spring&#45;boot&#45;autoconfigure&#45;4.10.3\n(level 0/6)</title>
<ellipse fill="#98dafe" stroke="#1178b2" cx="286" cy="-717.23" rx="165.81" ry="29.42"/>
<text text-anchor="middle" x="286" y="-721.43" font-family="Helvetica,Arial,sans-serif" font-size="14.00">axon&#45;spring&#45;boot&#45;autoconfigure&#45;4.10.3</text>
<text text-anchor="middle" x="286" y="-704.63" font-family="Helvetica,Arial,sans-serif" font-size="14.00">(level 0/6)</text>
</g>
<!-- axon&#45;spring&#45;boot&#45;autoconfigure&#45;4.10.3\n(level 0/6)&#45;&gt;axon&#45;eventsourcing&#45;4.10.3\n(level 4/6) -->
<g id="edge6" class="edge">
<title>axon&#45;spring&#45;boot&#45;autoconfigure&#45;4.10.3\n(level 0/6)&#45;&gt;axon&#45;eventsourcing&#45;4.10.3\n(level 4/6)</title>
<path fill="none" stroke="#1178b2" stroke-width="1.33" d="M252.49,-688.18C233.3,-668.86 213,-641.34 213,-611.4 213,-611.4 213,-611.4 213,-348.91 213,-325.93 221.65,-301.95 231,-282.73"/>
<polygon fill="#1178b2" stroke="#1178b2" stroke-width="1.33" points="233.99,-284.57 235.45,-274.08 227.76,-281.37 233.99,-284.57"/>
<text text-anchor="middle" x="218" y="-453.74" font-family="Helvetica,Arial,sans-serif" font-size="10.00">52</text>
</g>
<!-- axon&#45;spring&#45;boot&#45;autoconfigure&#45;4.10.3\n(level 0/6)&#45;&gt;axon&#45;messaging&#45;4.10.3\n(level 6/6) -->
<g id="edge4" class="edge">
<title>axon&#45;spring&#45;boot&#45;autoconfigure&#45;4.10.3\n(level 0/6)&#45;&gt;axon&#45;messaging&#45;4.10.3\n(level 6/6)</title>
<path fill="none" stroke="#1178b2" stroke-width="3.53" d="M170.91,-695.73C91.44,-678.18 0,-649.68 0,-611.4 0,-611.4 0,-611.4 0,-135.25 0,-58.48 230.33,-37.66 377.07,-32.18"/>
<polygon fill="#1178b2" stroke="#1178b2" stroke-width="3.53" points="377.11,-35.68 386.98,-31.84 376.87,-28.69 377.11,-35.68"/>
<text text-anchor="middle" x="7.5" y="-346.91" font-family="Helvetica,Arial,sans-serif" font-size="10.00">384</text>
</g>
<!-- axon&#45;spring&#45;boot&#45;autoconfigure&#45;4.10.3\n(level 0/6)&#45;&gt;axon&#45;modelling&#45;4.10.3\n(level 5/6) -->
<g id="edge7" class="edge">
<title>axon&#45;spring&#45;boot&#45;autoconfigure&#45;4.10.3\n(level 0/6)&#45;&gt;axon&#45;modelling&#45;4.10.3\n(level 5/6)</title>
<path fill="none" stroke="#1178b2" stroke-width="1.23" d="M287.72,-687.62C292.38,-621.35 308.16,-452.9 354,-320.49 357.97,-309.03 376.21,-284.02 380,-272.49 390.17,-241.59 394.9,-204.97 397.09,-177.63"/>
<polygon fill="#1178b2" stroke="#1178b2" stroke-width="1.23" points="400.56,-178.23 397.78,-168.01 393.58,-177.73 400.56,-178.23"/>
<text text-anchor="middle" x="336.21" y="-400.33" font-family="Helvetica,Arial,sans-serif" font-size="10.00">36</text>
</g>
<!-- axon&#45;server&#45;connector&#45;4.10.3\n(level 1/6) -->
<g id="node5" class="node">
<title>axon&#45;server&#45;connector&#45;4.10.3\n(level 1/6)</title>
<ellipse fill="#98dafe" stroke="#1178b2" cx="492" cy="-610.4" rx="128.41" ry="29.42"/>
<text text-anchor="middle" x="492" y="-614.6" font-family="Helvetica,Arial,sans-serif" font-size="14.00">axon&#45;server&#45;connector&#45;4.10.3</text>
<text text-anchor="middle" x="492" y="-597.8" font-family="Helvetica,Arial,sans-serif" font-size="14.00">(level 1/6)</text>
</g>
<!-- axon&#45;spring&#45;boot&#45;autoconfigure&#45;4.10.3\n(level 0/6)&#45;&gt;axon&#45;server&#45;connector&#45;4.10.3\n(level 1/6) -->
<g id="edge3" class="edge">
<title>axon&#45;spring&#45;boot&#45;autoconfigure&#45;4.10.3\n(level 0/6)&#45;&gt;axon&#45;server&#45;connector&#45;4.10.3\n(level 1/6)</title>
<path fill="none" stroke="red" stroke-width="1.57" d="M339.59,-688.97C367.18,-674.92 400.97,-657.73 429.71,-643.1"/>
<polygon fill="red" stroke="red" stroke-width="1.57" points="431.02,-646.36 438.34,-638.71 427.84,-640.13 431.02,-646.36"/>
<text text-anchor="middle" x="400.18" y="-660.82" font-family="Helvetica,Arial,sans-serif" font-size="10.00">88</text>
</g>
<!-- axon&#45;configuration&#45;4.10.3\n(level 2/6) -->
<g id="node6" class="node">
<title>axon&#45;configuration&#45;4.10.3\n(level 2/6)</title>
<ellipse fill="#98dafe" stroke="#1178b2" cx="467" cy="-456.74" rx="115.23" ry="29.42"/>
<text text-anchor="middle" x="467" y="-460.94" font-family="Helvetica,Arial,sans-serif" font-size="14.00">axon&#45;configuration&#45;4.10.3</text>
<text text-anchor="middle" x="467" y="-444.14" font-family="Helvetica,Arial,sans-serif" font-size="14.00">(level 2/6)</text>
</g>
<!-- axon&#45;spring&#45;boot&#45;autoconfigure&#45;4.10.3\n(level 0/6)&#45;&gt;axon&#45;configuration&#45;4.10.3\n(level 2/6) -->
<g id="edge5" class="edge">
<title>axon&#45;spring&#45;boot&#45;autoconfigure&#45;4.10.3\n(level 0/6)&#45;&gt;axon&#45;configuration&#45;4.10.3\n(level 2/6)</title>
<path fill="none" stroke="#1178b2" stroke-width="1.49" d="M295.06,-687.49C304.81,-658.99 322.07,-614.81 345,-580.99 367.27,-548.14 398.95,-516.44 424.45,-493.42"/>
<polygon fill="#1178b2" stroke="#1178b2" stroke-width="1.49" points="426.7,-496.11 431.85,-486.85 422.05,-490.87 426.7,-496.11"/>
<text text-anchor="middle" x="350" y="-607.4" font-family="Helvetica,Arial,sans-serif" font-size="10.00">76</text>
</g>
<!-- axon&#45;test&#45;4.10.3\n(level 1/6) -->
<g id="node7" class="node">
<title>axon&#45;test&#45;4.10.3\n(level 1/6)</title>
<ellipse fill="#98dafe" stroke="#1178b2" cx="109" cy="-349.91" rx="75.65" ry="29.42"/>
<text text-anchor="middle" x="109" y="-354.11" font-family="Helvetica,Arial,sans-serif" font-size="14.00">axon&#45;test&#45;4.10.3</text>
<text text-anchor="middle" x="109" y="-337.31" font-family="Helvetica,Arial,sans-serif" font-size="14.00">(level 1/6)</text>
</g>
<!-- axon&#45;spring&#45;boot&#45;autoconfigure&#45;4.10.3\n(level 0/6)&#45;&gt;axon&#45;test&#45;4.10.3\n(level 1/6) -->
<g id="edge8" class="edge">
<title>axon&#45;spring&#45;boot&#45;autoconfigure&#45;4.10.3\n(level 0/6)&#45;&gt;axon&#45;test&#45;4.10.3\n(level 1/6)</title>
<path fill="none" stroke="darkorange" stroke-width="1.01" d="M221.55,-689.77C213.1,-684.16 205.23,-677.55 199,-669.82 131.92,-586.51 114.8,-455.99 110.46,-390.78"/>
<polygon fill="darkorange" stroke="darkorange" stroke-width="1.01" points="113.96,-390.7 109.88,-380.92 106.97,-391.11 113.96,-390.7"/>
<text text-anchor="middle" x="144.5" y="-530.57" font-family="Helvetica,Arial,sans-serif" font-size="10.00">4</text>
</g>
<!-- axon&#45;tracing&#45;opentelemetry&#45;4.10.3\n(level 1/6) -->
<g id="node8" class="node">
<title>axon&#45;tracing&#45;opentelemetry&#45;4.10.3\n(level 1/6)</title>
<ellipse fill="#98dafe" stroke="#1178b2" cx="871" cy="-533.57" rx="149.3" ry="29.42"/>
<text text-anchor="middle" x="871" y="-537.77" font-family="Helvetica,Arial,sans-serif" font-size="14.00">axon&#45;tracing&#45;opentelemetry&#45;4.10.3</text>
<text text-anchor="middle" x="871" y="-520.97" font-family="Helvetica,Arial,sans-serif" font-size="14.00">(level 1/6)</text>
</g>
<!-- axon&#45;spring&#45;boot&#45;autoconfigure&#45;4.10.3\n(level 0/6)&#45;&gt;axon&#45;tracing&#45;opentelemetry&#45;4.10.3\n(level 1/6) -->
<g id="edge9" class="edge">
<title>axon&#45;spring&#45;boot&#45;autoconfigure&#45;4.10.3\n(level 0/6)&#45;&gt;axon&#45;tracing&#45;opentelemetry&#45;4.10.3\n(level 1/6)</title>
<path fill="none" stroke="darkorange" stroke-width="1.01" d="M402.6,-696C469.66,-682.95 555.03,-663.9 629,-639.82 691.1,-619.6 759.07,-589.27 807.12,-566.35"/>
<polygon fill="darkorange" stroke="darkorange" stroke-width="1.01" points="808.49,-569.58 815.99,-562.1 805.46,-563.27 808.49,-569.58"/>
<text text-anchor="middle" x="565.74" y="-660.82" font-family="Helvetica,Arial,sans-serif" font-size="10.00">4</text>
</g>
<!-- axon&#45;server&#45;connector&#45;4.10.3\n(level 1/6)&#45;&gt;axon&#45;eventsourcing&#45;4.10.3\n(level 4/6) -->
<g id="edge12" class="edge">
<title>axon&#45;server&#45;connector&#45;4.10.3\n(level 1/6)&#45;&gt;axon&#45;eventsourcing&#45;4.10.3\n(level 4/6)</title>
<path fill="none" stroke="#1178b2" stroke-width="1.21" d="M440.06,-583.16C382.94,-551.03 294.29,-490.67 257,-409.33 238.87,-369.78 241.16,-319.11 246.05,-284.37"/>
<polygon fill="#1178b2" stroke="#1178b2" stroke-width="1.21" points="249.49,-285.01 247.57,-274.59 242.57,-283.94 249.49,-285.01"/>
<text text-anchor="middle" x="262" y="-400.33" font-family="Helvetica,Arial,sans-serif" font-size="10.00">34</text>
</g>
<!-- axon&#45;server&#45;connector&#45;4.10.3\n(level 1/6)&#45;&gt;axon&#45;messaging&#45;4.10.3\n(level 6/6) -->
<g id="edge11" class="edge">
<title>axon&#45;server&#45;connector&#45;4.10.3\n(level 1/6)&#45;&gt;axon&#45;messaging&#45;4.10.3\n(level 6/6)</title>
<path fill="none" stroke="#1178b2" stroke-width="6" d="M574.2,-587.41C634.9,-565.61 707,-525.46 707,-457.74 707,-457.74 707,-457.74 707,-135.25 707,-84.83 658.09,-58.66 607.37,-45.08"/>
<polygon fill="#1178b2" stroke="#1178b2" stroke-width="6" points="608.85,-40.04 597.89,-42.78 606.37,-50.24 608.85,-40.04"/>
<text text-anchor="middle" x="714.5" y="-293.49" font-family="Helvetica,Arial,sans-serif" font-size="10.00">756</text>
</g>
<!-- axon&#45;server&#45;connector&#45;4.10.3\n(level 1/6)&#45;&gt;axon&#45;modelling&#45;4.10.3\n(level 5/6) -->
<g id="edge13" class="edge">
<title>axon&#45;server&#45;connector&#45;4.10.3\n(level 1/6)&#45;&gt;axon&#45;modelling&#45;4.10.3\n(level 5/6)</title>
<path fill="none" stroke="#1178b2" d="M522.04,-581.62C545.01,-558.45 575.33,-523.33 591,-486.16 638.17,-374.26 676.74,-315.76 611,-213.66 588.11,-178.11 546.75,-158.95 506.6,-148.69"/>
<polygon fill="#1178b2" stroke="#1178b2" points="507.62,-145.33 497.08,-146.43 506,-152.15 507.62,-145.33"/>
<text text-anchor="middle" x="648.44" y="-346.91" font-family="Helvetica,Arial,sans-serif" font-size="10.00">2</text>
</g>
<!-- axon&#45;server&#45;connector&#45;4.10.3\n(level 1/6)&#45;&gt;axon&#45;configuration&#45;4.10.3\n(level 2/6) -->
<g id="edge10" class="edge">
<title>axon&#45;server&#45;connector&#45;4.10.3\n(level 1/6)&#45;&gt;axon&#45;configuration&#45;4.10.3\n(level 2/6)</title>
<path fill="none" stroke="red" stroke-width="1.24" d="M487.24,-580.52C483.38,-557.12 477.9,-523.88 473.62,-497.89"/>
<polygon fill="red" stroke="red" stroke-width="1.24" points="477.13,-497.67 472.05,-488.37 470.22,-498.8 477.13,-497.67"/>
<text text-anchor="middle" x="488.91" y="-530.57" font-family="Helvetica,Arial,sans-serif" font-size="10.00">38</text>
</g>
<!-- axon&#45;configuration&#45;4.10.3\n(level 2/6)&#45;&gt;axon&#45;eventsourcing&#45;4.10.3\n(level 4/6) -->
<g id="edge17" class="edge">
<title>axon&#45;configuration&#45;4.10.3\n(level 2/6)&#45;&gt;axon&#45;eventsourcing&#45;4.10.3\n(level 4/6)</title>
<path fill="none" stroke="#1178b2" stroke-width="1.4" d="M415.06,-430.04C391.69,-416.91 364.76,-399.45 344,-379.33 314.91,-351.13 290.13,-311.99 273.98,-283.07"/>
<polygon fill="#1178b2" stroke="#1178b2" stroke-width="1.4" points="277.1,-281.49 269.24,-274.39 270.96,-284.84 277.1,-281.49"/>
<text text-anchor="middle" x="349" y="-346.91" font-family="Helvetica,Arial,sans-serif" font-size="10.00">62</text>
</g>
<!-- axon&#45;configuration&#45;4.10.3\n(level 2/6)&#45;&gt;axon&#45;messaging&#45;4.10.3\n(level 6/6) -->
<g id="edge16" class="edge">
<title>axon&#45;configuration&#45;4.10.3\n(level 2/6)&#45;&gt;axon&#45;messaging&#45;4.10.3\n(level 6/6)</title>
<path fill="none" stroke="#1178b2" stroke-width="4.5" d="M534.62,-432.61C556.79,-420.79 577.64,-403.62 585,-379.33 618.18,-269.74 558.33,-138.37 521.58,-72.48"/>
<polygon fill="#1178b2" stroke="#1178b2" stroke-width="4.5" points="525.12,-70.74 516.74,-64.02 518.29,-74.65 525.12,-70.74"/>
<text text-anchor="middle" x="599.55" y="-240.08" font-family="Helvetica,Arial,sans-serif" font-size="10.00">530</text>
</g>
<!-- axon&#45;configuration&#45;4.10.3\n(level 2/6)&#45;&gt;axon&#45;modelling&#45;4.10.3\n(level 5/6) -->
<g id="edge15" class="edge">
<title>axon&#45;configuration&#45;4.10.3\n(level 2/6)&#45;&gt;axon&#45;modelling&#45;4.10.3\n(level 5/6)</title>
<path fill="none" stroke="#1178b2" stroke-width="1.64" d="M518.64,-429.97C537.8,-417.51 557.42,-400.59 568,-379.33 579.64,-355.91 571.88,-346.35 568,-320.49 558.56,-257.58 569.78,-229.81 526,-183.66 516.38,-173.52 504.36,-165.59 491.58,-159.38"/>
<polygon fill="#1178b2" stroke="#1178b2" stroke-width="1.64" points="493.03,-156.19 482.47,-155.36 490.2,-162.6 493.03,-156.19"/>
<text text-anchor="middle" x="570.58" y="-293.49" font-family="Helvetica,Arial,sans-serif" font-size="10.00">98</text>
</g>
<!-- axon&#45;disruptor&#45;4.10.3\n(level 3/6) -->
<g id="node9" class="node">
<title>axon&#45;disruptor&#45;4.10.3\n(level 3/6)</title>
<ellipse fill="#98dafe" stroke="#1178b2" cx="461" cy="-349.91" rx="97.64" ry="29.42"/>
<text text-anchor="middle" x="461" y="-354.11" font-family="Helvetica,Arial,sans-serif" font-size="14.00">axon&#45;disruptor&#45;4.10.3</text>
<text text-anchor="middle" x="461" y="-337.31" font-family="Helvetica,Arial,sans-serif" font-size="14.00">(level 3/6)</text>
</g>
<!-- axon&#45;configuration&#45;4.10.3\n(level 2/6)&#45;&gt;axon&#45;disruptor&#45;4.10.3\n(level 3/6) -->
<g id="edge18" class="edge">
<title>axon&#45;configuration&#45;4.10.3\n(level 2/6)&#45;&gt;axon&#45;disruptor&#45;4.10.3\n(level 3/6)</title>
<path fill="none" stroke="red" d="M465.36,-427.1C464.72,-415.89 463.97,-402.84 463.28,-390.74"/>
<polygon fill="red" stroke="red" points="466.79,-390.82 462.72,-381.03 459.8,-391.22 466.79,-390.82"/>
<text text-anchor="middle" x="466.68" y="-400.33" font-family="Helvetica,Arial,sans-serif" font-size="10.00">2</text>
</g>
<!-- axon&#45;test&#45;4.10.3\n(level 1/6)&#45;&gt;axon&#45;eventsourcing&#45;4.10.3\n(level 4/6) -->
<g id="edge25" class="edge">
<title>axon&#45;test&#45;4.10.3\n(level 1/6)&#45;&gt;axon&#45;eventsourcing&#45;4.10.3\n(level 4/6)</title>
<path fill="none" stroke="#1178b2" stroke-width="1.13" d="M143.59,-323.53C157.66,-313.24 174.08,-301.27 189,-290.49 194.68,-286.39 200.65,-282.1 206.58,-277.85"/>
<polygon fill="#1178b2" stroke="#1178b2" stroke-width="1.13" points="208.31,-280.92 214.41,-272.25 204.24,-275.22 208.31,-280.92"/>
<text text-anchor="middle" x="194" y="-293.49" font-family="Helvetica,Arial,sans-serif" font-size="10.00">22</text>
</g>
<!-- axon&#45;test&#45;4.10.3\n(level 1/6)&#45;&gt;axon&#45;messaging&#45;4.10.3\n(level 6/6) -->
<g id="edge23" class="edge">
<title>axon&#45;test&#45;4.10.3\n(level 1/6)&#45;&gt;axon&#45;messaging&#45;4.10.3\n(level 6/6)</title>
<path fill="none" stroke="#1178b2" stroke-width="3.77" d="M97.33,-320.53C87.49,-291.92 77.56,-247.3 95,-213.66 149.98,-107.61 286.96,-62.76 385.53,-43.9"/>
<polygon fill="#1178b2" stroke="#1178b2" stroke-width="3.77" points="385.87,-47.4 395.08,-42.17 384.61,-40.51 385.87,-47.4"/>
<text text-anchor="middle" x="118.9" y="-186.66" font-family="Helvetica,Arial,sans-serif" font-size="10.00">420</text>
</g>
<!-- axon&#45;test&#45;4.10.3\n(level 1/6)&#45;&gt;axon&#45;modelling&#45;4.10.3\n(level 5/6) -->
<g id="edge24" class="edge">
<title>axon&#45;test&#45;4.10.3\n(level 1/6)&#45;&gt;axon&#45;modelling&#45;4.10.3\n(level 5/6)</title>
<path fill="none" stroke="#1178b2" stroke-width="1.64" d="M102.13,-320.36C96.72,-290.35 93.63,-243.44 118,-213.66 118.81,-212.67 231.17,-182.32 313.54,-160.18"/>
<polygon fill="#1178b2" stroke="#1178b2" stroke-width="1.64" points="314.31,-163.59 323.06,-157.62 312.5,-156.83 314.31,-163.59"/>
<text text-anchor="middle" x="123" y="-240.08" font-family="Helvetica,Arial,sans-serif" font-size="10.00">98</text>
</g>
<!-- axon&#45;tracing&#45;opentelemetry&#45;4.10.3\n(level 1/6)&#45;&gt;axon&#45;messaging&#45;4.10.3\n(level 6/6) -->
<g id="edge14" class="edge">
<title>axon&#45;tracing&#45;opentelemetry&#45;4.10.3\n(level 1/6)&#45;&gt;axon&#45;messaging&#45;4.10.3\n(level 6/6)</title>
<path fill="none" stroke="#1178b2" stroke-width="1.15" d="M847.9,-504.45C829.92,-479.67 808,-441.78 808,-404.33 808,-404.33 808,-404.33 808,-135.25 808,-90.38 690.6,-61.11 599.83,-45.19"/>
<polygon fill="#1178b2" stroke="#1178b2" stroke-width="1.15" points="600.51,-41.75 590.06,-43.51 599.32,-48.65 600.51,-41.75"/>
<text text-anchor="middle" x="813" y="-293.49" font-family="Helvetica,Arial,sans-serif" font-size="10.00">24</text>
</g>
<!-- axon&#45;disruptor&#45;4.10.3\n(level 3/6)&#45;&gt;axon&#45;eventsourcing&#45;4.10.3\n(level 4/6) -->
<g id="edge22" class="edge">
<title>axon&#45;disruptor&#45;4.10.3\n(level 3/6)&#45;&gt;axon&#45;eventsourcing&#45;4.10.3\n(level 4/6)</title>
<path fill="none" stroke="red" stroke-width="1.19" d="M411.94,-324.07C383.05,-309.43 346.24,-290.79 315.43,-275.19"/>
<polygon fill="red" stroke="red" stroke-width="1.19" points="317.34,-272.23 306.84,-270.84 314.18,-278.48 317.34,-272.23"/>
<text text-anchor="middle" x="368.71" y="-293.49" font-family="Helvetica,Arial,sans-serif" font-size="10.00">30</text>
</g>
<!-- axon&#45;disruptor&#45;4.10.3\n(level 3/6)&#45;&gt;axon&#45;messaging&#45;4.10.3\n(level 6/6) -->
<g id="edge20" class="edge">
<title>axon&#45;disruptor&#45;4.10.3\n(level 3/6)&#45;&gt;axon&#45;messaging&#45;4.10.3\n(level 6/6)</title>
<path fill="none" stroke="#1178b2" stroke-width="2.23" d="M471.19,-320.18C483.27,-284.5 502.66,-221.5 510,-165.66 513.41,-139.74 512.37,-132.87 510,-106.83 508.97,-95.47 507.09,-83.27 505.04,-72.03"/>
<polygon fill="#1178b2" stroke="#1178b2" stroke-width="2.23" points="508.47,-71.38 503.13,-62.23 501.6,-72.71 508.47,-71.38"/>
<text text-anchor="middle" x="514.52" y="-186.66" font-family="Helvetica,Arial,sans-serif" font-size="10.00">188</text>
</g>
<!-- axon&#45;disruptor&#45;4.10.3\n(level 3/6)&#45;&gt;axon&#45;modelling&#45;4.10.3\n(level 5/6) -->
<g id="edge21" class="edge">
<title>axon&#45;disruptor&#45;4.10.3\n(level 3/6)&#45;&gt;axon&#45;modelling&#45;4.10.3\n(level 5/6)</title>
<path fill="none" stroke="#1178b2" stroke-width="1.27" d="M452.76,-320.22C443.27,-287.25 427.16,-231.5 413,-183.66 412.35,-181.48 411.69,-179.25 411.02,-176.99"/>
<polygon fill="#1178b2" stroke="#1178b2" stroke-width="1.27" points="414.41,-176.12 408.19,-167.55 407.71,-178.13 414.41,-176.12"/>
<text text-anchor="middle" x="443.59" y="-240.08" font-family="Helvetica,Arial,sans-serif" font-size="10.00">42</text>
</g>
</g>
</svg>

